<mxfile host="app.diagrams.net" modified="2020-09-15T09:57:03.953Z" agent="5.0 (Windows NT 6.1; WOW64) AppleWebKit/537.36 (KHTML, like Gecko) Chrome/85.0.4183.102 Safari/537.36" etag="QQZz8AJPMXoWLGcTf96J" version="13.7.1" type="github">
  <diagram id="K_gJm94YP-M_Kc2MIBEv" name="Page-1">
    <mxGraphModel dx="2249" dy="772" grid="1" gridSize="10" guides="1" tooltips="1" connect="1" arrows="1" fold="1" page="1" pageScale="1" pageWidth="827" pageHeight="1169" math="0" shadow="0">
      <root>
        <mxCell id="0" />
        <mxCell id="1" parent="0" />
        <mxCell id="PEksmdlY59P0YD768jUj-524" value="CS_NOT_DET" style="shape=table;startSize=30;container=1;collapsible=1;childLayout=tableLayout;fixedRows=1;rowLines=0;fontStyle=0;align=center;resizeLast=1;" vertex="1" parent="1">
          <mxGeometry x="-650" y="100" width="310" height="1740" as="geometry" />
        </mxCell>
        <mxCell id="PEksmdlY59P0YD768jUj-534" value="" style="shape=partialRectangle;collapsible=0;dropTarget=0;pointerEvents=0;fillColor=none;top=0;left=0;bottom=0;right=0;points=[[0,0.5],[1,0.5]];portConstraint=eastwest;" vertex="1" parent="PEksmdlY59P0YD768jUj-524">
          <mxGeometry y="30" width="310" height="30" as="geometry" />
        </mxCell>
        <mxCell id="PEksmdlY59P0YD768jUj-535" value="" style="shape=partialRectangle;connectable=0;fillColor=none;top=0;left=0;bottom=0;right=0;editable=1;overflow=hidden;" vertex="1" parent="PEksmdlY59P0YD768jUj-534">
          <mxGeometry width="30" height="30" as="geometry" />
        </mxCell>
        <mxCell id="PEksmdlY59P0YD768jUj-536" value="EMP_ID(唯一号)" style="shape=partialRectangle;connectable=0;fillColor=none;top=0;left=0;bottom=0;right=0;align=left;spacingLeft=6;overflow=hidden;" vertex="1" parent="PEksmdlY59P0YD768jUj-534">
          <mxGeometry x="30" width="280" height="30" as="geometry" />
        </mxCell>
        <mxCell id="PEksmdlY59P0YD768jUj-561" style="shape=partialRectangle;collapsible=0;dropTarget=0;pointerEvents=0;fillColor=none;top=0;left=0;bottom=0;right=0;points=[[0,0.5],[1,0.5]];portConstraint=eastwest;" vertex="1" parent="PEksmdlY59P0YD768jUj-524">
          <mxGeometry y="60" width="310" height="30" as="geometry" />
        </mxCell>
        <mxCell id="PEksmdlY59P0YD768jUj-562" style="shape=partialRectangle;connectable=0;fillColor=none;top=0;left=0;bottom=0;right=0;editable=1;overflow=hidden;" vertex="1" parent="PEksmdlY59P0YD768jUj-561">
          <mxGeometry width="30" height="30" as="geometry" />
        </mxCell>
        <mxCell id="PEksmdlY59P0YD768jUj-563" value="EMP_NAME(雇员姓名)" style="shape=partialRectangle;connectable=0;fillColor=none;top=0;left=0;bottom=0;right=0;align=left;spacingLeft=6;overflow=hidden;" vertex="1" parent="PEksmdlY59P0YD768jUj-561">
          <mxGeometry x="30" width="280" height="30" as="geometry" />
        </mxCell>
        <mxCell id="PEksmdlY59P0YD768jUj-558" style="shape=partialRectangle;collapsible=0;dropTarget=0;pointerEvents=0;fillColor=none;top=0;left=0;bottom=0;right=0;points=[[0,0.5],[1,0.5]];portConstraint=eastwest;" vertex="1" parent="PEksmdlY59P0YD768jUj-524">
          <mxGeometry y="90" width="310" height="30" as="geometry" />
        </mxCell>
        <mxCell id="PEksmdlY59P0YD768jUj-559" style="shape=partialRectangle;connectable=0;fillColor=none;top=0;left=0;bottom=0;right=0;editable=1;overflow=hidden;" vertex="1" parent="PEksmdlY59P0YD768jUj-558">
          <mxGeometry width="30" height="30" as="geometry" />
        </mxCell>
        <mxCell id="PEksmdlY59P0YD768jUj-560" value="BUSI_CUST_ID(业务客户ID)" style="shape=partialRectangle;connectable=0;fillColor=none;top=0;left=0;bottom=0;right=0;align=left;spacingLeft=6;overflow=hidden;" vertex="1" parent="PEksmdlY59P0YD768jUj-558">
          <mxGeometry x="30" width="280" height="30" as="geometry" />
        </mxCell>
        <mxCell id="PEksmdlY59P0YD768jUj-570" style="shape=partialRectangle;collapsible=0;dropTarget=0;pointerEvents=0;fillColor=none;top=0;left=0;bottom=0;right=0;points=[[0,0.5],[1,0.5]];portConstraint=eastwest;" vertex="1" parent="PEksmdlY59P0YD768jUj-524">
          <mxGeometry y="120" width="310" height="30" as="geometry" />
        </mxCell>
        <mxCell id="PEksmdlY59P0YD768jUj-571" style="shape=partialRectangle;connectable=0;fillColor=none;top=0;left=0;bottom=0;right=0;editable=1;overflow=hidden;" vertex="1" parent="PEksmdlY59P0YD768jUj-570">
          <mxGeometry width="30" height="30" as="geometry" />
        </mxCell>
        <mxCell id="PEksmdlY59P0YD768jUj-572" value="BUSI_REP_ID(负责业务代表角色实例ID)" style="shape=partialRectangle;connectable=0;fillColor=none;top=0;left=0;bottom=0;right=0;align=left;spacingLeft=6;overflow=hidden;" vertex="1" parent="PEksmdlY59P0YD768jUj-570">
          <mxGeometry x="30" width="280" height="30" as="geometry" />
        </mxCell>
        <mxCell id="PEksmdlY59P0YD768jUj-672" style="shape=partialRectangle;collapsible=0;dropTarget=0;pointerEvents=0;fillColor=none;top=0;left=0;bottom=0;right=0;points=[[0,0.5],[1,0.5]];portConstraint=eastwest;" vertex="1" parent="PEksmdlY59P0YD768jUj-524">
          <mxGeometry y="150" width="310" height="30" as="geometry" />
        </mxCell>
        <mxCell id="PEksmdlY59P0YD768jUj-673" style="shape=partialRectangle;connectable=0;fillColor=none;top=0;left=0;bottom=0;right=0;editable=1;overflow=hidden;" vertex="1" parent="PEksmdlY59P0YD768jUj-672">
          <mxGeometry width="30" height="30" as="geometry" />
        </mxCell>
        <mxCell id="PEksmdlY59P0YD768jUj-674" value="LABOR_WAY(用工方式(WAY_LAB_TYPE))" style="shape=partialRectangle;connectable=0;fillColor=none;top=0;left=0;bottom=0;right=0;align=left;spacingLeft=6;overflow=hidden;" vertex="1" parent="PEksmdlY59P0YD768jUj-672">
          <mxGeometry x="30" width="280" height="30" as="geometry" />
        </mxCell>
        <mxCell id="PEksmdlY59P0YD768jUj-540" style="shape=partialRectangle;collapsible=0;dropTarget=0;pointerEvents=0;fillColor=none;top=0;left=0;bottom=0;right=0;points=[[0,0.5],[1,0.5]];portConstraint=eastwest;" vertex="1" parent="PEksmdlY59P0YD768jUj-524">
          <mxGeometry y="180" width="310" height="30" as="geometry" />
        </mxCell>
        <mxCell id="PEksmdlY59P0YD768jUj-541" style="shape=partialRectangle;connectable=0;fillColor=none;top=0;left=0;bottom=0;right=0;editable=1;overflow=hidden;" vertex="1" parent="PEksmdlY59P0YD768jUj-540">
          <mxGeometry width="30" height="30" as="geometry" />
        </mxCell>
        <mxCell id="PEksmdlY59P0YD768jUj-542" value="BUSI_YM(业务年月)" style="shape=partialRectangle;connectable=0;fillColor=none;top=0;left=0;bottom=0;right=0;align=left;spacingLeft=6;overflow=hidden;" vertex="1" parent="PEksmdlY59P0YD768jUj-540">
          <mxGeometry x="30" width="280" height="30" as="geometry" />
        </mxCell>
        <mxCell id="PEksmdlY59P0YD768jUj-543" style="shape=partialRectangle;collapsible=0;dropTarget=0;pointerEvents=0;fillColor=none;top=0;left=0;bottom=0;right=0;points=[[0,0.5],[1,0.5]];portConstraint=eastwest;" vertex="1" parent="PEksmdlY59P0YD768jUj-524">
          <mxGeometry y="210" width="310" height="30" as="geometry" />
        </mxCell>
        <mxCell id="PEksmdlY59P0YD768jUj-544" style="shape=partialRectangle;connectable=0;fillColor=none;top=0;left=0;bottom=0;right=0;editable=1;overflow=hidden;" vertex="1" parent="PEksmdlY59P0YD768jUj-543">
          <mxGeometry width="30" height="30" as="geometry" />
        </mxCell>
        <mxCell id="PEksmdlY59P0YD768jUj-545" value="CRE_YM(生成年月)" style="shape=partialRectangle;connectable=0;fillColor=none;top=0;left=0;bottom=0;right=0;align=left;spacingLeft=6;overflow=hidden;" vertex="1" parent="PEksmdlY59P0YD768jUj-543">
          <mxGeometry x="30" width="280" height="30" as="geometry" />
        </mxCell>
        <mxCell id="PEksmdlY59P0YD768jUj-528" value="" style="shape=partialRectangle;collapsible=0;dropTarget=0;pointerEvents=0;fillColor=none;top=0;left=0;bottom=0;right=0;points=[[0,0.5],[1,0.5]];portConstraint=eastwest;" vertex="1" parent="PEksmdlY59P0YD768jUj-524">
          <mxGeometry y="240" width="310" height="30" as="geometry" />
        </mxCell>
        <mxCell id="PEksmdlY59P0YD768jUj-529" value="" style="shape=partialRectangle;connectable=0;fillColor=none;top=0;left=0;bottom=0;right=0;editable=1;overflow=hidden;" vertex="1" parent="PEksmdlY59P0YD768jUj-528">
          <mxGeometry width="30" height="30" as="geometry" />
        </mxCell>
        <mxCell id="PEksmdlY59P0YD768jUj-530" value="CHA_NOT_ID(收费通知单ID)" style="shape=partialRectangle;connectable=0;fillColor=none;top=0;left=0;bottom=0;right=0;align=left;spacingLeft=6;overflow=hidden;" vertex="1" parent="PEksmdlY59P0YD768jUj-528">
          <mxGeometry x="30" width="280" height="30" as="geometry" />
        </mxCell>
        <mxCell id="PEksmdlY59P0YD768jUj-525" value="" style="shape=partialRectangle;collapsible=0;dropTarget=0;pointerEvents=0;fillColor=none;top=0;left=0;bottom=1;right=0;points=[[0,0.5],[1,0.5]];portConstraint=eastwest;" vertex="1" parent="PEksmdlY59P0YD768jUj-524">
          <mxGeometry y="270" width="310" height="30" as="geometry" />
        </mxCell>
        <mxCell id="PEksmdlY59P0YD768jUj-526" value="PK" style="shape=partialRectangle;connectable=0;fillColor=none;top=0;left=0;bottom=0;right=0;fontStyle=1;overflow=hidden;" vertex="1" parent="PEksmdlY59P0YD768jUj-525">
          <mxGeometry width="30" height="30" as="geometry" />
        </mxCell>
        <mxCell id="PEksmdlY59P0YD768jUj-527" value="NOT_DET_ID(通知单明细ID)" style="shape=partialRectangle;connectable=0;fillColor=none;top=0;left=0;bottom=0;right=0;align=left;spacingLeft=6;fontStyle=5;overflow=hidden;" vertex="1" parent="PEksmdlY59P0YD768jUj-525">
          <mxGeometry x="30" width="280" height="30" as="geometry" />
        </mxCell>
        <mxCell id="PEksmdlY59P0YD768jUj-591" style="shape=partialRectangle;collapsible=0;dropTarget=0;pointerEvents=0;fillColor=none;top=0;left=0;bottom=0;right=0;points=[[0,0.5],[1,0.5]];portConstraint=eastwest;" vertex="1" parent="PEksmdlY59P0YD768jUj-524">
          <mxGeometry y="300" width="310" height="30" as="geometry" />
        </mxCell>
        <mxCell id="PEksmdlY59P0YD768jUj-592" style="shape=partialRectangle;connectable=0;fillColor=none;top=0;left=0;bottom=0;right=0;editable=1;overflow=hidden;" vertex="1" parent="PEksmdlY59P0YD768jUj-591">
          <mxGeometry width="30" height="30" as="geometry" />
        </mxCell>
        <mxCell id="PEksmdlY59P0YD768jUj-593" value="VALUE_(值)" style="shape=partialRectangle;connectable=0;fillColor=none;top=0;left=0;bottom=0;right=0;align=left;spacingLeft=6;overflow=hidden;" vertex="1" parent="PEksmdlY59P0YD768jUj-591">
          <mxGeometry x="30" width="280" height="30" as="geometry" />
        </mxCell>
        <mxCell id="PEksmdlY59P0YD768jUj-654" style="shape=partialRectangle;collapsible=0;dropTarget=0;pointerEvents=0;fillColor=none;top=0;left=0;bottom=0;right=0;points=[[0,0.5],[1,0.5]];portConstraint=eastwest;" vertex="1" parent="PEksmdlY59P0YD768jUj-524">
          <mxGeometry y="330" width="310" height="30" as="geometry" />
        </mxCell>
        <mxCell id="PEksmdlY59P0YD768jUj-655" style="shape=partialRectangle;connectable=0;fillColor=none;top=0;left=0;bottom=0;right=0;editable=1;overflow=hidden;" vertex="1" parent="PEksmdlY59P0YD768jUj-654">
          <mxGeometry width="30" height="30" as="geometry" />
        </mxCell>
        <mxCell id="PEksmdlY59P0YD768jUj-656" value="PROD_PRICE_SCHM_ID(定价方案id)" style="shape=partialRectangle;connectable=0;fillColor=none;top=0;left=0;bottom=0;right=0;align=left;spacingLeft=6;overflow=hidden;" vertex="1" parent="PEksmdlY59P0YD768jUj-654">
          <mxGeometry x="30" width="280" height="30" as="geometry" />
        </mxCell>
        <mxCell id="PEksmdlY59P0YD768jUj-615" style="shape=partialRectangle;collapsible=0;dropTarget=0;pointerEvents=0;fillColor=none;top=0;left=0;bottom=0;right=0;points=[[0,0.5],[1,0.5]];portConstraint=eastwest;" vertex="1" parent="PEksmdlY59P0YD768jUj-524">
          <mxGeometry y="360" width="310" height="30" as="geometry" />
        </mxCell>
        <mxCell id="PEksmdlY59P0YD768jUj-616" style="shape=partialRectangle;connectable=0;fillColor=none;top=0;left=0;bottom=0;right=0;editable=1;overflow=hidden;" vertex="1" parent="PEksmdlY59P0YD768jUj-615">
          <mxGeometry width="30" height="30" as="geometry" />
        </mxCell>
        <mxCell id="PEksmdlY59P0YD768jUj-617" value="INV_ITEM_ID(发票科目ID)" style="shape=partialRectangle;connectable=0;fillColor=none;top=0;left=0;bottom=0;right=0;align=left;spacingLeft=6;overflow=hidden;" vertex="1" parent="PEksmdlY59P0YD768jUj-615">
          <mxGeometry x="30" width="280" height="30" as="geometry" />
        </mxCell>
        <mxCell id="PEksmdlY59P0YD768jUj-594" style="shape=partialRectangle;collapsible=0;dropTarget=0;pointerEvents=0;fillColor=none;top=0;left=0;bottom=0;right=0;points=[[0,0.5],[1,0.5]];portConstraint=eastwest;" vertex="1" parent="PEksmdlY59P0YD768jUj-524">
          <mxGeometry y="390" width="310" height="30" as="geometry" />
        </mxCell>
        <mxCell id="PEksmdlY59P0YD768jUj-595" style="shape=partialRectangle;connectable=0;fillColor=none;top=0;left=0;bottom=0;right=0;editable=1;overflow=hidden;" vertex="1" parent="PEksmdlY59P0YD768jUj-594">
          <mxGeometry width="30" height="30" as="geometry" />
        </mxCell>
        <mxCell id="PEksmdlY59P0YD768jUj-596" value="OI_DET_CATE(明细类型(PROD_CHAR_COUN_TYPE))" style="shape=partialRectangle;connectable=0;fillColor=none;top=0;left=0;bottom=0;right=0;align=left;spacingLeft=6;overflow=hidden;" vertex="1" parent="PEksmdlY59P0YD768jUj-594">
          <mxGeometry x="30" width="280" height="30" as="geometry" />
        </mxCell>
        <mxCell id="PEksmdlY59P0YD768jUj-576" style="shape=partialRectangle;collapsible=0;dropTarget=0;pointerEvents=0;fillColor=none;top=0;left=0;bottom=0;right=0;points=[[0,0.5],[1,0.5]];portConstraint=eastwest;" vertex="1" parent="PEksmdlY59P0YD768jUj-524">
          <mxGeometry y="420" width="310" height="30" as="geometry" />
        </mxCell>
        <mxCell id="PEksmdlY59P0YD768jUj-577" style="shape=partialRectangle;connectable=0;fillColor=none;top=0;left=0;bottom=0;right=0;editable=1;overflow=hidden;" vertex="1" parent="PEksmdlY59P0YD768jUj-576">
          <mxGeometry width="30" height="30" as="geometry" />
        </mxCell>
        <mxCell id="PEksmdlY59P0YD768jUj-578" value="PROPERTY(属性)" style="shape=partialRectangle;connectable=0;fillColor=none;top=0;left=0;bottom=0;right=0;align=left;spacingLeft=6;overflow=hidden;" vertex="1" parent="PEksmdlY59P0YD768jUj-576">
          <mxGeometry x="30" width="280" height="30" as="geometry" />
        </mxCell>
        <mxCell id="PEksmdlY59P0YD768jUj-624" style="shape=partialRectangle;collapsible=0;dropTarget=0;pointerEvents=0;fillColor=none;top=0;left=0;bottom=0;right=0;points=[[0,0.5],[1,0.5]];portConstraint=eastwest;" vertex="1" parent="PEksmdlY59P0YD768jUj-524">
          <mxGeometry y="450" width="310" height="30" as="geometry" />
        </mxCell>
        <mxCell id="PEksmdlY59P0YD768jUj-625" style="shape=partialRectangle;connectable=0;fillColor=none;top=0;left=0;bottom=0;right=0;editable=1;overflow=hidden;" vertex="1" parent="PEksmdlY59P0YD768jUj-624">
          <mxGeometry width="30" height="30" as="geometry" />
        </mxCell>
        <mxCell id="PEksmdlY59P0YD768jUj-626" value="IS_PAY_TAG(是否为长期垫付(OI_PAY_TYPE))" style="shape=partialRectangle;connectable=0;fillColor=none;top=0;left=0;bottom=0;right=0;align=left;spacingLeft=6;overflow=hidden;" vertex="1" parent="PEksmdlY59P0YD768jUj-624">
          <mxGeometry x="30" width="280" height="30" as="geometry" />
        </mxCell>
        <mxCell id="PEksmdlY59P0YD768jUj-639" style="shape=partialRectangle;collapsible=0;dropTarget=0;pointerEvents=0;fillColor=none;top=0;left=0;bottom=0;right=0;points=[[0,0.5],[1,0.5]];portConstraint=eastwest;" vertex="1" parent="PEksmdlY59P0YD768jUj-524">
          <mxGeometry y="480" width="310" height="30" as="geometry" />
        </mxCell>
        <mxCell id="PEksmdlY59P0YD768jUj-640" style="shape=partialRectangle;connectable=0;fillColor=none;top=0;left=0;bottom=0;right=0;editable=1;overflow=hidden;" vertex="1" parent="PEksmdlY59P0YD768jUj-639">
          <mxGeometry width="30" height="30" as="geometry" />
        </mxCell>
        <mxCell id="PEksmdlY59P0YD768jUj-641" value="AREA_NAME(涉及地区)" style="shape=partialRectangle;connectable=0;fillColor=none;top=0;left=0;bottom=0;right=0;align=left;spacingLeft=6;overflow=hidden;" vertex="1" parent="PEksmdlY59P0YD768jUj-639">
          <mxGeometry x="30" width="280" height="30" as="geometry" />
        </mxCell>
        <mxCell id="PEksmdlY59P0YD768jUj-675" style="shape=partialRectangle;collapsible=0;dropTarget=0;pointerEvents=0;fillColor=none;top=0;left=0;bottom=0;right=0;points=[[0,0.5],[1,0.5]];portConstraint=eastwest;" vertex="1" parent="PEksmdlY59P0YD768jUj-524">
          <mxGeometry y="510" width="310" height="30" as="geometry" />
        </mxCell>
        <mxCell id="PEksmdlY59P0YD768jUj-676" style="shape=partialRectangle;connectable=0;fillColor=none;top=0;left=0;bottom=0;right=0;editable=1;overflow=hidden;" vertex="1" parent="PEksmdlY59P0YD768jUj-675">
          <mxGeometry width="30" height="30" as="geometry" />
        </mxCell>
        <mxCell id="PEksmdlY59P0YD768jUj-677" value="IS_FULL_AMO(是否全额(YES_NO))" style="shape=partialRectangle;connectable=0;fillColor=none;top=0;left=0;bottom=0;right=0;align=left;spacingLeft=6;overflow=hidden;" vertex="1" parent="PEksmdlY59P0YD768jUj-675">
          <mxGeometry x="30" width="280" height="30" as="geometry" />
        </mxCell>
        <mxCell id="PEksmdlY59P0YD768jUj-552" style="shape=partialRectangle;collapsible=0;dropTarget=0;pointerEvents=0;fillColor=none;top=0;left=0;bottom=0;right=0;points=[[0,0.5],[1,0.5]];portConstraint=eastwest;" vertex="1" parent="PEksmdlY59P0YD768jUj-524">
          <mxGeometry y="540" width="310" height="30" as="geometry" />
        </mxCell>
        <mxCell id="PEksmdlY59P0YD768jUj-553" style="shape=partialRectangle;connectable=0;fillColor=none;top=0;left=0;bottom=0;right=0;editable=1;overflow=hidden;" vertex="1" parent="PEksmdlY59P0YD768jUj-552">
          <mxGeometry width="30" height="30" as="geometry" />
        </mxCell>
        <mxCell id="PEksmdlY59P0YD768jUj-554" value="CRE_TIME(创建时间)" style="shape=partialRectangle;connectable=0;fillColor=none;top=0;left=0;bottom=0;right=0;align=left;spacingLeft=6;overflow=hidden;" vertex="1" parent="PEksmdlY59P0YD768jUj-552">
          <mxGeometry x="30" width="280" height="30" as="geometry" />
        </mxCell>
        <mxCell id="PEksmdlY59P0YD768jUj-678" style="shape=partialRectangle;collapsible=0;dropTarget=0;pointerEvents=0;fillColor=none;top=0;left=0;bottom=0;right=0;points=[[0,0.5],[1,0.5]];portConstraint=eastwest;" vertex="1" parent="PEksmdlY59P0YD768jUj-524">
          <mxGeometry y="570" width="310" height="30" as="geometry" />
        </mxCell>
        <mxCell id="PEksmdlY59P0YD768jUj-679" style="shape=partialRectangle;connectable=0;fillColor=none;top=0;left=0;bottom=0;right=0;editable=1;overflow=hidden;" vertex="1" parent="PEksmdlY59P0YD768jUj-678">
          <mxGeometry width="30" height="30" as="geometry" />
        </mxCell>
        <mxCell id="PEksmdlY59P0YD768jUj-680" value="TAX_RATE(税率)" style="shape=partialRectangle;connectable=0;fillColor=none;top=0;left=0;bottom=0;right=0;align=left;spacingLeft=6;overflow=hidden;" vertex="1" parent="PEksmdlY59P0YD768jUj-678">
          <mxGeometry x="30" width="280" height="30" as="geometry" />
        </mxCell>
        <mxCell id="PEksmdlY59P0YD768jUj-531" value="" style="shape=partialRectangle;collapsible=0;dropTarget=0;pointerEvents=0;fillColor=none;top=0;left=0;bottom=0;right=0;points=[[0,0.5],[1,0.5]];portConstraint=eastwest;" vertex="1" parent="PEksmdlY59P0YD768jUj-524">
          <mxGeometry y="600" width="310" height="30" as="geometry" />
        </mxCell>
        <mxCell id="PEksmdlY59P0YD768jUj-532" value="" style="shape=partialRectangle;connectable=0;fillColor=none;top=0;left=0;bottom=0;right=0;editable=1;overflow=hidden;" vertex="1" parent="PEksmdlY59P0YD768jUj-531">
          <mxGeometry width="30" height="30" as="geometry" />
        </mxCell>
        <mxCell id="PEksmdlY59P0YD768jUj-533" value="CHA_NOT_TEMPLET_ID(通知单模板ID)" style="shape=partialRectangle;connectable=0;fillColor=none;top=0;left=0;bottom=0;right=0;align=left;spacingLeft=6;overflow=hidden;" vertex="1" parent="PEksmdlY59P0YD768jUj-531">
          <mxGeometry x="30" width="280" height="30" as="geometry" />
        </mxCell>
        <mxCell id="PEksmdlY59P0YD768jUj-546" style="shape=partialRectangle;collapsible=0;dropTarget=0;pointerEvents=0;fillColor=none;top=0;left=0;bottom=0;right=0;points=[[0,0.5],[1,0.5]];portConstraint=eastwest;" vertex="1" parent="PEksmdlY59P0YD768jUj-524">
          <mxGeometry y="630" width="310" height="30" as="geometry" />
        </mxCell>
        <mxCell id="PEksmdlY59P0YD768jUj-547" style="shape=partialRectangle;connectable=0;fillColor=none;top=0;left=0;bottom=0;right=0;editable=1;overflow=hidden;" vertex="1" parent="PEksmdlY59P0YD768jUj-546">
          <mxGeometry width="30" height="30" as="geometry" />
        </mxCell>
        <mxCell id="PEksmdlY59P0YD768jUj-548" value="IS_BUSI_AMO(是否业务应收(YES_NO))" style="shape=partialRectangle;connectable=0;fillColor=none;top=0;left=0;bottom=0;right=0;align=left;spacingLeft=6;overflow=hidden;" vertex="1" parent="PEksmdlY59P0YD768jUj-546">
          <mxGeometry x="30" width="280" height="30" as="geometry" />
        </mxCell>
        <mxCell id="PEksmdlY59P0YD768jUj-537" style="shape=partialRectangle;collapsible=0;dropTarget=0;pointerEvents=0;fillColor=none;top=0;left=0;bottom=0;right=0;points=[[0,0.5],[1,0.5]];portConstraint=eastwest;" vertex="1" parent="PEksmdlY59P0YD768jUj-524">
          <mxGeometry y="660" width="310" height="30" as="geometry" />
        </mxCell>
        <mxCell id="PEksmdlY59P0YD768jUj-538" style="shape=partialRectangle;connectable=0;fillColor=none;top=0;left=0;bottom=0;right=0;editable=1;overflow=hidden;" vertex="1" parent="PEksmdlY59P0YD768jUj-537">
          <mxGeometry width="30" height="30" as="geometry" />
        </mxCell>
        <mxCell id="PEksmdlY59P0YD768jUj-539" value="IS_AUTO_SUM(是否参与行列的自动汇总(YES_NO))" style="shape=partialRectangle;connectable=0;fillColor=none;top=0;left=0;bottom=0;right=0;align=left;spacingLeft=6;overflow=hidden;" vertex="1" parent="PEksmdlY59P0YD768jUj-537">
          <mxGeometry x="30" width="280" height="30" as="geometry" />
        </mxCell>
        <mxCell id="PEksmdlY59P0YD768jUj-549" style="shape=partialRectangle;collapsible=0;dropTarget=0;pointerEvents=0;fillColor=none;top=0;left=0;bottom=0;right=0;points=[[0,0.5],[1,0.5]];portConstraint=eastwest;" vertex="1" parent="PEksmdlY59P0YD768jUj-524">
          <mxGeometry y="690" width="310" height="30" as="geometry" />
        </mxCell>
        <mxCell id="PEksmdlY59P0YD768jUj-550" style="shape=partialRectangle;connectable=0;fillColor=none;top=0;left=0;bottom=0;right=0;editable=1;overflow=hidden;" vertex="1" parent="PEksmdlY59P0YD768jUj-549">
          <mxGeometry width="30" height="30" as="geometry" />
        </mxCell>
        <mxCell id="PEksmdlY59P0YD768jUj-551" value="IS_EFFECT(是否有效(YES_NO))" style="shape=partialRectangle;connectable=0;fillColor=none;top=0;left=0;bottom=0;right=0;align=left;spacingLeft=6;overflow=hidden;" vertex="1" parent="PEksmdlY59P0YD768jUj-549">
          <mxGeometry x="30" width="280" height="30" as="geometry" />
        </mxCell>
        <mxCell id="PEksmdlY59P0YD768jUj-555" style="shape=partialRectangle;collapsible=0;dropTarget=0;pointerEvents=0;fillColor=none;top=0;left=0;bottom=0;right=0;points=[[0,0.5],[1,0.5]];portConstraint=eastwest;" vertex="1" parent="PEksmdlY59P0YD768jUj-524">
          <mxGeometry y="720" width="310" height="30" as="geometry" />
        </mxCell>
        <mxCell id="PEksmdlY59P0YD768jUj-556" style="shape=partialRectangle;connectable=0;fillColor=none;top=0;left=0;bottom=0;right=0;editable=1;overflow=hidden;" vertex="1" parent="PEksmdlY59P0YD768jUj-555">
          <mxGeometry width="30" height="30" as="geometry" />
        </mxCell>
        <mxCell id="PEksmdlY59P0YD768jUj-557" value="CHANGE_TYPE(明细变化类型（新派、翻月、撤离、改费）(无字典值，目前字段值只有1))" style="shape=partialRectangle;connectable=0;fillColor=none;top=0;left=0;bottom=0;right=0;align=left;spacingLeft=6;overflow=hidden;" vertex="1" parent="PEksmdlY59P0YD768jUj-555">
          <mxGeometry x="30" width="280" height="30" as="geometry" />
        </mxCell>
        <mxCell id="PEksmdlY59P0YD768jUj-564" style="shape=partialRectangle;collapsible=0;dropTarget=0;pointerEvents=0;fillColor=none;top=0;left=0;bottom=0;right=0;points=[[0,0.5],[1,0.5]];portConstraint=eastwest;" vertex="1" parent="PEksmdlY59P0YD768jUj-524">
          <mxGeometry y="750" width="310" height="30" as="geometry" />
        </mxCell>
        <mxCell id="PEksmdlY59P0YD768jUj-565" style="shape=partialRectangle;connectable=0;fillColor=none;top=0;left=0;bottom=0;right=0;editable=1;overflow=hidden;" vertex="1" parent="PEksmdlY59P0YD768jUj-564">
          <mxGeometry width="30" height="30" as="geometry" />
        </mxCell>
        <mxCell id="PEksmdlY59P0YD768jUj-566" value="CUST_NAME(客户名称)" style="shape=partialRectangle;connectable=0;fillColor=none;top=0;left=0;bottom=0;right=0;align=left;spacingLeft=6;overflow=hidden;" vertex="1" parent="PEksmdlY59P0YD768jUj-564">
          <mxGeometry x="30" width="280" height="30" as="geometry" />
        </mxCell>
        <mxCell id="PEksmdlY59P0YD768jUj-567" style="shape=partialRectangle;collapsible=0;dropTarget=0;pointerEvents=0;fillColor=none;top=0;left=0;bottom=0;right=0;points=[[0,0.5],[1,0.5]];portConstraint=eastwest;" vertex="1" parent="PEksmdlY59P0YD768jUj-524">
          <mxGeometry y="780" width="310" height="30" as="geometry" />
        </mxCell>
        <mxCell id="PEksmdlY59P0YD768jUj-568" style="shape=partialRectangle;connectable=0;fillColor=none;top=0;left=0;bottom=0;right=0;editable=1;overflow=hidden;" vertex="1" parent="PEksmdlY59P0YD768jUj-567">
          <mxGeometry width="30" height="30" as="geometry" />
        </mxCell>
        <mxCell id="PEksmdlY59P0YD768jUj-569" value="BUSI_DEP_ID(业务部ID)" style="shape=partialRectangle;connectable=0;fillColor=none;top=0;left=0;bottom=0;right=0;align=left;spacingLeft=6;overflow=hidden;" vertex="1" parent="PEksmdlY59P0YD768jUj-567">
          <mxGeometry x="30" width="280" height="30" as="geometry" />
        </mxCell>
        <mxCell id="PEksmdlY59P0YD768jUj-573" style="shape=partialRectangle;collapsible=0;dropTarget=0;pointerEvents=0;fillColor=none;top=0;left=0;bottom=0;right=0;points=[[0,0.5],[1,0.5]];portConstraint=eastwest;" vertex="1" parent="PEksmdlY59P0YD768jUj-524">
          <mxGeometry y="810" width="310" height="30" as="geometry" />
        </mxCell>
        <mxCell id="PEksmdlY59P0YD768jUj-574" style="shape=partialRectangle;connectable=0;fillColor=none;top=0;left=0;bottom=0;right=0;editable=1;overflow=hidden;" vertex="1" parent="PEksmdlY59P0YD768jUj-573">
          <mxGeometry width="30" height="30" as="geometry" />
        </mxCell>
        <mxCell id="PEksmdlY59P0YD768jUj-575" value="MAIN_TABL(主表)" style="shape=partialRectangle;connectable=0;fillColor=none;top=0;left=0;bottom=0;right=0;align=left;spacingLeft=6;overflow=hidden;" vertex="1" parent="PEksmdlY59P0YD768jUj-573">
          <mxGeometry x="30" width="280" height="30" as="geometry" />
        </mxCell>
        <mxCell id="PEksmdlY59P0YD768jUj-579" style="shape=partialRectangle;collapsible=0;dropTarget=0;pointerEvents=0;fillColor=none;top=0;left=0;bottom=0;right=0;points=[[0,0.5],[1,0.5]];portConstraint=eastwest;" vertex="1" parent="PEksmdlY59P0YD768jUj-524">
          <mxGeometry y="840" width="310" height="30" as="geometry" />
        </mxCell>
        <mxCell id="PEksmdlY59P0YD768jUj-580" style="shape=partialRectangle;connectable=0;fillColor=none;top=0;left=0;bottom=0;right=0;editable=1;overflow=hidden;" vertex="1" parent="PEksmdlY59P0YD768jUj-579">
          <mxGeometry width="30" height="30" as="geometry" />
        </mxCell>
        <mxCell id="PEksmdlY59P0YD768jUj-581" value="PROD_SCHM_ID(报价单产品方案id)" style="shape=partialRectangle;connectable=0;fillColor=none;top=0;left=0;bottom=0;right=0;align=left;spacingLeft=6;overflow=hidden;" vertex="1" parent="PEksmdlY59P0YD768jUj-579">
          <mxGeometry x="30" width="280" height="30" as="geometry" />
        </mxCell>
        <mxCell id="PEksmdlY59P0YD768jUj-582" style="shape=partialRectangle;collapsible=0;dropTarget=0;pointerEvents=0;fillColor=none;top=0;left=0;bottom=0;right=0;points=[[0,0.5],[1,0.5]];portConstraint=eastwest;" vertex="1" parent="PEksmdlY59P0YD768jUj-524">
          <mxGeometry y="870" width="310" height="30" as="geometry" />
        </mxCell>
        <mxCell id="PEksmdlY59P0YD768jUj-583" style="shape=partialRectangle;connectable=0;fillColor=none;top=0;left=0;bottom=0;right=0;editable=1;overflow=hidden;" vertex="1" parent="PEksmdlY59P0YD768jUj-582">
          <mxGeometry width="30" height="30" as="geometry" />
        </mxCell>
        <mxCell id="PEksmdlY59P0YD768jUj-584" value="ORDER_DET_ID(月度明细id)" style="shape=partialRectangle;connectable=0;fillColor=none;top=0;left=0;bottom=0;right=0;align=left;spacingLeft=6;overflow=hidden;" vertex="1" parent="PEksmdlY59P0YD768jUj-582">
          <mxGeometry x="30" width="280" height="30" as="geometry" />
        </mxCell>
        <mxCell id="PEksmdlY59P0YD768jUj-585" style="shape=partialRectangle;collapsible=0;dropTarget=0;pointerEvents=0;fillColor=none;top=0;left=0;bottom=0;right=0;points=[[0,0.5],[1,0.5]];portConstraint=eastwest;" vertex="1" parent="PEksmdlY59P0YD768jUj-524">
          <mxGeometry y="900" width="310" height="30" as="geometry" />
        </mxCell>
        <mxCell id="PEksmdlY59P0YD768jUj-586" style="shape=partialRectangle;connectable=0;fillColor=none;top=0;left=0;bottom=0;right=0;editable=1;overflow=hidden;" vertex="1" parent="PEksmdlY59P0YD768jUj-585">
          <mxGeometry width="30" height="30" as="geometry" />
        </mxCell>
        <mxCell id="PEksmdlY59P0YD768jUj-587" value="LAST_CHA_DATE(最晚收费日期(账期))" style="shape=partialRectangle;connectable=0;fillColor=none;top=0;left=0;bottom=0;right=0;align=left;spacingLeft=6;overflow=hidden;" vertex="1" parent="PEksmdlY59P0YD768jUj-585">
          <mxGeometry x="30" width="280" height="30" as="geometry" />
        </mxCell>
        <mxCell id="PEksmdlY59P0YD768jUj-588" style="shape=partialRectangle;collapsible=0;dropTarget=0;pointerEvents=0;fillColor=none;top=0;left=0;bottom=0;right=0;points=[[0,0.5],[1,0.5]];portConstraint=eastwest;" vertex="1" parent="PEksmdlY59P0YD768jUj-524">
          <mxGeometry y="930" width="310" height="30" as="geometry" />
        </mxCell>
        <mxCell id="PEksmdlY59P0YD768jUj-589" style="shape=partialRectangle;connectable=0;fillColor=none;top=0;left=0;bottom=0;right=0;editable=1;overflow=hidden;" vertex="1" parent="PEksmdlY59P0YD768jUj-588">
          <mxGeometry width="30" height="30" as="geometry" />
        </mxCell>
        <mxCell id="PEksmdlY59P0YD768jUj-590" value="ATTACH_STA(附属信息类型(生成二批通知单明细标示)(无字典值，存储中默认赋值1，目前字段值有1和0))" style="shape=partialRectangle;connectable=0;fillColor=none;top=0;left=0;bottom=0;right=0;align=left;spacingLeft=6;overflow=hidden;" vertex="1" parent="PEksmdlY59P0YD768jUj-588">
          <mxGeometry x="30" width="280" height="30" as="geometry" />
        </mxCell>
        <mxCell id="PEksmdlY59P0YD768jUj-597" style="shape=partialRectangle;collapsible=0;dropTarget=0;pointerEvents=0;fillColor=none;top=0;left=0;bottom=0;right=0;points=[[0,0.5],[1,0.5]];portConstraint=eastwest;" vertex="1" parent="PEksmdlY59P0YD768jUj-524">
          <mxGeometry y="960" width="310" height="30" as="geometry" />
        </mxCell>
        <mxCell id="PEksmdlY59P0YD768jUj-598" style="shape=partialRectangle;connectable=0;fillColor=none;top=0;left=0;bottom=0;right=0;editable=1;overflow=hidden;" vertex="1" parent="PEksmdlY59P0YD768jUj-597">
          <mxGeometry width="30" height="30" as="geometry" />
        </mxCell>
        <mxCell id="PEksmdlY59P0YD768jUj-599" value="DET_SOURCE(系统处理使用(一次性收费项目功能、订单明细、特殊补缴明细)(CHA_NOT_TYPE))" style="shape=partialRectangle;connectable=0;fillColor=none;top=0;left=0;bottom=0;right=0;align=left;spacingLeft=6;overflow=hidden;" vertex="1" parent="PEksmdlY59P0YD768jUj-597">
          <mxGeometry x="30" width="280" height="30" as="geometry" />
        </mxCell>
        <mxCell id="PEksmdlY59P0YD768jUj-600" style="shape=partialRectangle;collapsible=0;dropTarget=0;pointerEvents=0;fillColor=none;top=0;left=0;bottom=0;right=0;points=[[0,0.5],[1,0.5]];portConstraint=eastwest;" vertex="1" parent="PEksmdlY59P0YD768jUj-524">
          <mxGeometry y="990" width="310" height="30" as="geometry" />
        </mxCell>
        <mxCell id="PEksmdlY59P0YD768jUj-601" style="shape=partialRectangle;connectable=0;fillColor=none;top=0;left=0;bottom=0;right=0;editable=1;overflow=hidden;" vertex="1" parent="PEksmdlY59P0YD768jUj-600">
          <mxGeometry width="30" height="30" as="geometry" />
        </mxCell>
        <mxCell id="PEksmdlY59P0YD768jUj-602" value="WAGE_DAY(工资日（系统控制使用）)" style="shape=partialRectangle;connectable=0;fillColor=none;top=0;left=0;bottom=0;right=0;align=left;spacingLeft=6;overflow=hidden;" vertex="1" parent="PEksmdlY59P0YD768jUj-600">
          <mxGeometry x="30" width="280" height="30" as="geometry" />
        </mxCell>
        <mxCell id="PEksmdlY59P0YD768jUj-603" style="shape=partialRectangle;collapsible=0;dropTarget=0;pointerEvents=0;fillColor=none;top=0;left=0;bottom=0;right=0;points=[[0,0.5],[1,0.5]];portConstraint=eastwest;" vertex="1" parent="PEksmdlY59P0YD768jUj-524">
          <mxGeometry y="1020" width="310" height="30" as="geometry" />
        </mxCell>
        <mxCell id="PEksmdlY59P0YD768jUj-604" style="shape=partialRectangle;connectable=0;fillColor=none;top=0;left=0;bottom=0;right=0;editable=1;overflow=hidden;" vertex="1" parent="PEksmdlY59P0YD768jUj-603">
          <mxGeometry width="30" height="30" as="geometry" />
        </mxCell>
        <mxCell id="PEksmdlY59P0YD768jUj-605" value="REMARK(备注)" style="shape=partialRectangle;connectable=0;fillColor=none;top=0;left=0;bottom=0;right=0;align=left;spacingLeft=6;overflow=hidden;" vertex="1" parent="PEksmdlY59P0YD768jUj-603">
          <mxGeometry x="30" width="280" height="30" as="geometry" />
        </mxCell>
        <mxCell id="PEksmdlY59P0YD768jUj-606" style="shape=partialRectangle;collapsible=0;dropTarget=0;pointerEvents=0;fillColor=none;top=0;left=0;bottom=0;right=0;points=[[0,0.5],[1,0.5]];portConstraint=eastwest;" vertex="1" parent="PEksmdlY59P0YD768jUj-524">
          <mxGeometry y="1050" width="310" height="30" as="geometry" />
        </mxCell>
        <mxCell id="PEksmdlY59P0YD768jUj-607" style="shape=partialRectangle;connectable=0;fillColor=none;top=0;left=0;bottom=0;right=0;editable=1;overflow=hidden;" vertex="1" parent="PEksmdlY59P0YD768jUj-606">
          <mxGeometry width="30" height="30" as="geometry" />
        </mxCell>
        <mxCell id="PEksmdlY59P0YD768jUj-608" value="IS_SHOW(是否显示(YES_NO))" style="shape=partialRectangle;connectable=0;fillColor=none;top=0;left=0;bottom=0;right=0;align=left;spacingLeft=6;overflow=hidden;" vertex="1" parent="PEksmdlY59P0YD768jUj-606">
          <mxGeometry x="30" width="280" height="30" as="geometry" />
        </mxCell>
        <mxCell id="PEksmdlY59P0YD768jUj-609" style="shape=partialRectangle;collapsible=0;dropTarget=0;pointerEvents=0;fillColor=none;top=0;left=0;bottom=0;right=0;points=[[0,0.5],[1,0.5]];portConstraint=eastwest;" vertex="1" parent="PEksmdlY59P0YD768jUj-524">
          <mxGeometry y="1080" width="310" height="30" as="geometry" />
        </mxCell>
        <mxCell id="PEksmdlY59P0YD768jUj-610" style="shape=partialRectangle;connectable=0;fillColor=none;top=0;left=0;bottom=0;right=0;editable=1;overflow=hidden;" vertex="1" parent="PEksmdlY59P0YD768jUj-609">
          <mxGeometry width="30" height="30" as="geometry" />
        </mxCell>
        <mxCell id="PEksmdlY59P0YD768jUj-611" value="REPAY_TYPE(特殊还款类型(REPAY_TYPE))" style="shape=partialRectangle;connectable=0;fillColor=none;top=0;left=0;bottom=0;right=0;align=left;spacingLeft=6;overflow=hidden;" vertex="1" parent="PEksmdlY59P0YD768jUj-609">
          <mxGeometry x="30" width="280" height="30" as="geometry" />
        </mxCell>
        <mxCell id="PEksmdlY59P0YD768jUj-612" style="shape=partialRectangle;collapsible=0;dropTarget=0;pointerEvents=0;fillColor=none;top=0;left=0;bottom=0;right=0;points=[[0,0.5],[1,0.5]];portConstraint=eastwest;" vertex="1" parent="PEksmdlY59P0YD768jUj-524">
          <mxGeometry y="1110" width="310" height="30" as="geometry" />
        </mxCell>
        <mxCell id="PEksmdlY59P0YD768jUj-613" style="shape=partialRectangle;connectable=0;fillColor=none;top=0;left=0;bottom=0;right=0;editable=1;overflow=hidden;" vertex="1" parent="PEksmdlY59P0YD768jUj-612">
          <mxGeometry width="30" height="30" as="geometry" />
        </mxCell>
        <mxCell id="PEksmdlY59P0YD768jUj-614" value="NOT_DET_NAME(明细名称)" style="shape=partialRectangle;connectable=0;fillColor=none;top=0;left=0;bottom=0;right=0;align=left;spacingLeft=6;overflow=hidden;" vertex="1" parent="PEksmdlY59P0YD768jUj-612">
          <mxGeometry x="30" width="280" height="30" as="geometry" />
        </mxCell>
        <mxCell id="PEksmdlY59P0YD768jUj-618" style="shape=partialRectangle;collapsible=0;dropTarget=0;pointerEvents=0;fillColor=none;top=0;left=0;bottom=0;right=0;points=[[0,0.5],[1,0.5]];portConstraint=eastwest;" vertex="1" parent="PEksmdlY59P0YD768jUj-524">
          <mxGeometry y="1140" width="310" height="30" as="geometry" />
        </mxCell>
        <mxCell id="PEksmdlY59P0YD768jUj-619" style="shape=partialRectangle;connectable=0;fillColor=none;top=0;left=0;bottom=0;right=0;editable=1;overflow=hidden;" vertex="1" parent="PEksmdlY59P0YD768jUj-618">
          <mxGeometry width="30" height="30" as="geometry" />
        </mxCell>
        <mxCell id="PEksmdlY59P0YD768jUj-620" value="ACCOU_ITEM_ID(会计科目ID)" style="shape=partialRectangle;connectable=0;fillColor=none;top=0;left=0;bottom=0;right=0;align=left;spacingLeft=6;overflow=hidden;" vertex="1" parent="PEksmdlY59P0YD768jUj-618">
          <mxGeometry x="30" width="280" height="30" as="geometry" />
        </mxCell>
        <mxCell id="PEksmdlY59P0YD768jUj-621" style="shape=partialRectangle;collapsible=0;dropTarget=0;pointerEvents=0;fillColor=none;top=0;left=0;bottom=0;right=0;points=[[0,0.5],[1,0.5]];portConstraint=eastwest;" vertex="1" parent="PEksmdlY59P0YD768jUj-524">
          <mxGeometry y="1170" width="310" height="30" as="geometry" />
        </mxCell>
        <mxCell id="PEksmdlY59P0YD768jUj-622" style="shape=partialRectangle;connectable=0;fillColor=none;top=0;left=0;bottom=0;right=0;editable=1;overflow=hidden;" vertex="1" parent="PEksmdlY59P0YD768jUj-621">
          <mxGeometry width="30" height="30" as="geometry" />
        </mxCell>
        <mxCell id="PEksmdlY59P0YD768jUj-623" value="BILL_TYPE(票据类型(BILLS_TYPE))" style="shape=partialRectangle;connectable=0;fillColor=none;top=0;left=0;bottom=0;right=0;align=left;spacingLeft=6;overflow=hidden;" vertex="1" parent="PEksmdlY59P0YD768jUj-621">
          <mxGeometry x="30" width="280" height="30" as="geometry" />
        </mxCell>
        <mxCell id="PEksmdlY59P0YD768jUj-627" style="shape=partialRectangle;collapsible=0;dropTarget=0;pointerEvents=0;fillColor=none;top=0;left=0;bottom=0;right=0;points=[[0,0.5],[1,0.5]];portConstraint=eastwest;" vertex="1" parent="PEksmdlY59P0YD768jUj-524">
          <mxGeometry y="1200" width="310" height="30" as="geometry" />
        </mxCell>
        <mxCell id="PEksmdlY59P0YD768jUj-628" style="shape=partialRectangle;connectable=0;fillColor=none;top=0;left=0;bottom=0;right=0;editable=1;overflow=hidden;" vertex="1" parent="PEksmdlY59P0YD768jUj-627">
          <mxGeometry width="30" height="30" as="geometry" />
        </mxCell>
        <mxCell id="PEksmdlY59P0YD768jUj-629" value="SOURCE_NOT_IDS(来源通知单ID串)" style="shape=partialRectangle;connectable=0;fillColor=none;top=0;left=0;bottom=0;right=0;align=left;spacingLeft=6;overflow=hidden;" vertex="1" parent="PEksmdlY59P0YD768jUj-627">
          <mxGeometry x="30" width="280" height="30" as="geometry" />
        </mxCell>
        <mxCell id="PEksmdlY59P0YD768jUj-630" style="shape=partialRectangle;collapsible=0;dropTarget=0;pointerEvents=0;fillColor=none;top=0;left=0;bottom=0;right=0;points=[[0,0.5],[1,0.5]];portConstraint=eastwest;" vertex="1" parent="PEksmdlY59P0YD768jUj-524">
          <mxGeometry y="1230" width="310" height="30" as="geometry" />
        </mxCell>
        <mxCell id="PEksmdlY59P0YD768jUj-631" style="shape=partialRectangle;connectable=0;fillColor=none;top=0;left=0;bottom=0;right=0;editable=1;overflow=hidden;" vertex="1" parent="PEksmdlY59P0YD768jUj-630">
          <mxGeometry width="30" height="30" as="geometry" />
        </mxCell>
        <mxCell id="PEksmdlY59P0YD768jUj-632" value="TEMP_VALUE(临时金额)" style="shape=partialRectangle;connectable=0;fillColor=none;top=0;left=0;bottom=0;right=0;align=left;spacingLeft=6;overflow=hidden;" vertex="1" parent="PEksmdlY59P0YD768jUj-630">
          <mxGeometry x="30" width="280" height="30" as="geometry" />
        </mxCell>
        <mxCell id="PEksmdlY59P0YD768jUj-633" style="shape=partialRectangle;collapsible=0;dropTarget=0;pointerEvents=0;fillColor=none;top=0;left=0;bottom=0;right=0;points=[[0,0.5],[1,0.5]];portConstraint=eastwest;" vertex="1" parent="PEksmdlY59P0YD768jUj-524">
          <mxGeometry y="1260" width="310" height="30" as="geometry" />
        </mxCell>
        <mxCell id="PEksmdlY59P0YD768jUj-634" style="shape=partialRectangle;connectable=0;fillColor=none;top=0;left=0;bottom=0;right=0;editable=1;overflow=hidden;" vertex="1" parent="PEksmdlY59P0YD768jUj-633">
          <mxGeometry width="30" height="30" as="geometry" />
        </mxCell>
        <mxCell id="PEksmdlY59P0YD768jUj-635" value="INV_UNIT_NAME(发票单位名称)" style="shape=partialRectangle;connectable=0;fillColor=none;top=0;left=0;bottom=0;right=0;align=left;spacingLeft=6;overflow=hidden;" vertex="1" parent="PEksmdlY59P0YD768jUj-633">
          <mxGeometry x="30" width="280" height="30" as="geometry" />
        </mxCell>
        <mxCell id="PEksmdlY59P0YD768jUj-636" style="shape=partialRectangle;collapsible=0;dropTarget=0;pointerEvents=0;fillColor=none;top=0;left=0;bottom=0;right=0;points=[[0,0.5],[1,0.5]];portConstraint=eastwest;" vertex="1" parent="PEksmdlY59P0YD768jUj-524">
          <mxGeometry y="1290" width="310" height="30" as="geometry" />
        </mxCell>
        <mxCell id="PEksmdlY59P0YD768jUj-637" style="shape=partialRectangle;connectable=0;fillColor=none;top=0;left=0;bottom=0;right=0;editable=1;overflow=hidden;" vertex="1" parent="PEksmdlY59P0YD768jUj-636">
          <mxGeometry width="30" height="30" as="geometry" />
        </mxCell>
        <mxCell id="PEksmdlY59P0YD768jUj-638" value="BULLET_SHOW(是否可见（关联月报）(YES_NO))" style="shape=partialRectangle;connectable=0;fillColor=none;top=0;left=0;bottom=0;right=0;align=left;spacingLeft=6;overflow=hidden;" vertex="1" parent="PEksmdlY59P0YD768jUj-636">
          <mxGeometry x="30" width="280" height="30" as="geometry" />
        </mxCell>
        <mxCell id="PEksmdlY59P0YD768jUj-642" style="shape=partialRectangle;collapsible=0;dropTarget=0;pointerEvents=0;fillColor=none;top=0;left=0;bottom=0;right=0;points=[[0,0.5],[1,0.5]];portConstraint=eastwest;" vertex="1" parent="PEksmdlY59P0YD768jUj-524">
          <mxGeometry y="1320" width="310" height="30" as="geometry" />
        </mxCell>
        <mxCell id="PEksmdlY59P0YD768jUj-643" style="shape=partialRectangle;connectable=0;fillColor=none;top=0;left=0;bottom=0;right=0;editable=1;overflow=hidden;" vertex="1" parent="PEksmdlY59P0YD768jUj-642">
          <mxGeometry width="30" height="30" as="geometry" />
        </mxCell>
        <mxCell id="PEksmdlY59P0YD768jUj-644" value="PRIM_SUPP_NAME(主供应商名称)" style="shape=partialRectangle;connectable=0;fillColor=none;top=0;left=0;bottom=0;right=0;align=left;spacingLeft=6;overflow=hidden;" vertex="1" parent="PEksmdlY59P0YD768jUj-642">
          <mxGeometry x="30" width="280" height="30" as="geometry" />
        </mxCell>
        <mxCell id="PEksmdlY59P0YD768jUj-645" style="shape=partialRectangle;collapsible=0;dropTarget=0;pointerEvents=0;fillColor=none;top=0;left=0;bottom=0;right=0;points=[[0,0.5],[1,0.5]];portConstraint=eastwest;" vertex="1" parent="PEksmdlY59P0YD768jUj-524">
          <mxGeometry y="1350" width="310" height="30" as="geometry" />
        </mxCell>
        <mxCell id="PEksmdlY59P0YD768jUj-646" style="shape=partialRectangle;connectable=0;fillColor=none;top=0;left=0;bottom=0;right=0;editable=1;overflow=hidden;" vertex="1" parent="PEksmdlY59P0YD768jUj-645">
          <mxGeometry width="30" height="30" as="geometry" />
        </mxCell>
        <mxCell id="PEksmdlY59P0YD768jUj-647" value="PROT_NAME(协议名称)" style="shape=partialRectangle;connectable=0;fillColor=none;top=0;left=0;bottom=0;right=0;align=left;spacingLeft=6;overflow=hidden;" vertex="1" parent="PEksmdlY59P0YD768jUj-645">
          <mxGeometry x="30" width="280" height="30" as="geometry" />
        </mxCell>
        <mxCell id="PEksmdlY59P0YD768jUj-648" style="shape=partialRectangle;collapsible=0;dropTarget=0;pointerEvents=0;fillColor=none;top=0;left=0;bottom=0;right=0;points=[[0,0.5],[1,0.5]];portConstraint=eastwest;" vertex="1" parent="PEksmdlY59P0YD768jUj-524">
          <mxGeometry y="1380" width="310" height="30" as="geometry" />
        </mxCell>
        <mxCell id="PEksmdlY59P0YD768jUj-649" style="shape=partialRectangle;connectable=0;fillColor=none;top=0;left=0;bottom=0;right=0;editable=1;overflow=hidden;" vertex="1" parent="PEksmdlY59P0YD768jUj-648">
          <mxGeometry width="30" height="30" as="geometry" />
        </mxCell>
        <mxCell id="PEksmdlY59P0YD768jUj-650" value="PER_PKG_NAME(人员组成名称)" style="shape=partialRectangle;connectable=0;fillColor=none;top=0;left=0;bottom=0;right=0;align=left;spacingLeft=6;overflow=hidden;" vertex="1" parent="PEksmdlY59P0YD768jUj-648">
          <mxGeometry x="30" width="280" height="30" as="geometry" />
        </mxCell>
        <mxCell id="PEksmdlY59P0YD768jUj-651" style="shape=partialRectangle;collapsible=0;dropTarget=0;pointerEvents=0;fillColor=none;top=0;left=0;bottom=0;right=0;points=[[0,0.5],[1,0.5]];portConstraint=eastwest;" vertex="1" parent="PEksmdlY59P0YD768jUj-524">
          <mxGeometry y="1410" width="310" height="30" as="geometry" />
        </mxCell>
        <mxCell id="PEksmdlY59P0YD768jUj-652" style="shape=partialRectangle;connectable=0;fillColor=none;top=0;left=0;bottom=0;right=0;editable=1;overflow=hidden;" vertex="1" parent="PEksmdlY59P0YD768jUj-651">
          <mxGeometry width="30" height="30" as="geometry" />
        </mxCell>
        <mxCell id="PEksmdlY59P0YD768jUj-653" value="EMP_INSIDE_NO(员工内部编号)" style="shape=partialRectangle;connectable=0;fillColor=none;top=0;left=0;bottom=0;right=0;align=left;spacingLeft=6;overflow=hidden;" vertex="1" parent="PEksmdlY59P0YD768jUj-651">
          <mxGeometry x="30" width="280" height="30" as="geometry" />
        </mxCell>
        <mxCell id="PEksmdlY59P0YD768jUj-657" style="shape=partialRectangle;collapsible=0;dropTarget=0;pointerEvents=0;fillColor=none;top=0;left=0;bottom=0;right=0;points=[[0,0.5],[1,0.5]];portConstraint=eastwest;" vertex="1" parent="PEksmdlY59P0YD768jUj-524">
          <mxGeometry y="1440" width="310" height="30" as="geometry" />
        </mxCell>
        <mxCell id="PEksmdlY59P0YD768jUj-658" style="shape=partialRectangle;connectable=0;fillColor=none;top=0;left=0;bottom=0;right=0;editable=1;overflow=hidden;" vertex="1" parent="PEksmdlY59P0YD768jUj-657">
          <mxGeometry width="30" height="30" as="geometry" />
        </mxCell>
        <mxCell id="PEksmdlY59P0YD768jUj-659" value="IS_ABS_SHOW(是否彻底显示(字典值:YES_NO))" style="shape=partialRectangle;connectable=0;fillColor=none;top=0;left=0;bottom=0;right=0;align=left;spacingLeft=6;overflow=hidden;" vertex="1" parent="PEksmdlY59P0YD768jUj-657">
          <mxGeometry x="30" width="280" height="30" as="geometry" />
        </mxCell>
        <mxCell id="PEksmdlY59P0YD768jUj-660" style="shape=partialRectangle;collapsible=0;dropTarget=0;pointerEvents=0;fillColor=none;top=0;left=0;bottom=0;right=0;points=[[0,0.5],[1,0.5]];portConstraint=eastwest;" vertex="1" parent="PEksmdlY59P0YD768jUj-524">
          <mxGeometry y="1470" width="310" height="30" as="geometry" />
        </mxCell>
        <mxCell id="PEksmdlY59P0YD768jUj-661" style="shape=partialRectangle;connectable=0;fillColor=none;top=0;left=0;bottom=0;right=0;editable=1;overflow=hidden;" vertex="1" parent="PEksmdlY59P0YD768jUj-660">
          <mxGeometry width="30" height="30" as="geometry" />
        </mxCell>
        <mxCell id="PEksmdlY59P0YD768jUj-662" value="REAL_BASE(实际基数)" style="shape=partialRectangle;connectable=0;fillColor=none;top=0;left=0;bottom=0;right=0;align=left;spacingLeft=6;overflow=hidden;" vertex="1" parent="PEksmdlY59P0YD768jUj-660">
          <mxGeometry x="30" width="280" height="30" as="geometry" />
        </mxCell>
        <mxCell id="PEksmdlY59P0YD768jUj-663" style="shape=partialRectangle;collapsible=0;dropTarget=0;pointerEvents=0;fillColor=none;top=0;left=0;bottom=0;right=0;points=[[0,0.5],[1,0.5]];portConstraint=eastwest;" vertex="1" parent="PEksmdlY59P0YD768jUj-524">
          <mxGeometry y="1500" width="310" height="30" as="geometry" />
        </mxCell>
        <mxCell id="PEksmdlY59P0YD768jUj-664" style="shape=partialRectangle;connectable=0;fillColor=none;top=0;left=0;bottom=0;right=0;editable=1;overflow=hidden;" vertex="1" parent="PEksmdlY59P0YD768jUj-663">
          <mxGeometry width="30" height="30" as="geometry" />
        </mxCell>
        <mxCell id="PEksmdlY59P0YD768jUj-665" value="REAL_PROP(实际比例)" style="shape=partialRectangle;connectable=0;fillColor=none;top=0;left=0;bottom=0;right=0;align=left;spacingLeft=6;overflow=hidden;" vertex="1" parent="PEksmdlY59P0YD768jUj-663">
          <mxGeometry x="30" width="280" height="30" as="geometry" />
        </mxCell>
        <mxCell id="PEksmdlY59P0YD768jUj-666" style="shape=partialRectangle;collapsible=0;dropTarget=0;pointerEvents=0;fillColor=none;top=0;left=0;bottom=0;right=0;points=[[0,0.5],[1,0.5]];portConstraint=eastwest;" vertex="1" parent="PEksmdlY59P0YD768jUj-524">
          <mxGeometry y="1530" width="310" height="30" as="geometry" />
        </mxCell>
        <mxCell id="PEksmdlY59P0YD768jUj-667" style="shape=partialRectangle;connectable=0;fillColor=none;top=0;left=0;bottom=0;right=0;editable=1;overflow=hidden;" vertex="1" parent="PEksmdlY59P0YD768jUj-666">
          <mxGeometry width="30" height="30" as="geometry" />
        </mxCell>
        <mxCell id="PEksmdlY59P0YD768jUj-668" value="ATTACH_AMO(附加金额)" style="shape=partialRectangle;connectable=0;fillColor=none;top=0;left=0;bottom=0;right=0;align=left;spacingLeft=6;overflow=hidden;" vertex="1" parent="PEksmdlY59P0YD768jUj-666">
          <mxGeometry x="30" width="280" height="30" as="geometry" />
        </mxCell>
        <mxCell id="PEksmdlY59P0YD768jUj-669" style="shape=partialRectangle;collapsible=0;dropTarget=0;pointerEvents=0;fillColor=none;top=0;left=0;bottom=0;right=0;points=[[0,0.5],[1,0.5]];portConstraint=eastwest;" vertex="1" parent="PEksmdlY59P0YD768jUj-524">
          <mxGeometry y="1560" width="310" height="30" as="geometry" />
        </mxCell>
        <mxCell id="PEksmdlY59P0YD768jUj-670" style="shape=partialRectangle;connectable=0;fillColor=none;top=0;left=0;bottom=0;right=0;editable=1;overflow=hidden;" vertex="1" parent="PEksmdlY59P0YD768jUj-669">
          <mxGeometry width="30" height="30" as="geometry" />
        </mxCell>
        <mxCell id="PEksmdlY59P0YD768jUj-671" value="SHOW_ORDER_ID(订单id(一次性明细对应CS_ONCE_CHAR.CS_ONCE_CHAR_ID 非一次性对应CS_ORDER.ORDER_ID))" style="shape=partialRectangle;connectable=0;fillColor=none;top=0;left=0;bottom=0;right=0;align=left;spacingLeft=6;overflow=hidden;" vertex="1" parent="PEksmdlY59P0YD768jUj-669">
          <mxGeometry x="30" width="280" height="30" as="geometry" />
        </mxCell>
        <mxCell id="PEksmdlY59P0YD768jUj-681" style="shape=partialRectangle;collapsible=0;dropTarget=0;pointerEvents=0;fillColor=none;top=0;left=0;bottom=0;right=0;points=[[0,0.5],[1,0.5]];portConstraint=eastwest;" vertex="1" parent="PEksmdlY59P0YD768jUj-524">
          <mxGeometry y="1590" width="310" height="30" as="geometry" />
        </mxCell>
        <mxCell id="PEksmdlY59P0YD768jUj-682" style="shape=partialRectangle;connectable=0;fillColor=none;top=0;left=0;bottom=0;right=0;editable=1;overflow=hidden;" vertex="1" parent="PEksmdlY59P0YD768jUj-681">
          <mxGeometry width="30" height="30" as="geometry" />
        </mxCell>
        <mxCell id="PEksmdlY59P0YD768jUj-683" value="IS_PROV(是否计提(YES_NO))" style="shape=partialRectangle;connectable=0;fillColor=none;top=0;left=0;bottom=0;right=0;align=left;spacingLeft=6;overflow=hidden;" vertex="1" parent="PEksmdlY59P0YD768jUj-681">
          <mxGeometry x="30" width="280" height="30" as="geometry" />
        </mxCell>
        <mxCell id="PEksmdlY59P0YD768jUj-684" style="shape=partialRectangle;collapsible=0;dropTarget=0;pointerEvents=0;fillColor=none;top=0;left=0;bottom=0;right=0;points=[[0,0.5],[1,0.5]];portConstraint=eastwest;" vertex="1" parent="PEksmdlY59P0YD768jUj-524">
          <mxGeometry y="1620" width="310" height="30" as="geometry" />
        </mxCell>
        <mxCell id="PEksmdlY59P0YD768jUj-685" style="shape=partialRectangle;connectable=0;fillColor=none;top=0;left=0;bottom=0;right=0;editable=1;overflow=hidden;" vertex="1" parent="PEksmdlY59P0YD768jUj-684">
          <mxGeometry width="30" height="30" as="geometry" />
        </mxCell>
        <mxCell id="PEksmdlY59P0YD768jUj-686" value="" style="shape=partialRectangle;connectable=0;fillColor=none;top=0;left=0;bottom=0;right=0;align=left;spacingLeft=6;overflow=hidden;" vertex="1" parent="PEksmdlY59P0YD768jUj-684">
          <mxGeometry x="30" width="280" height="30" as="geometry" />
        </mxCell>
        <mxCell id="PEksmdlY59P0YD768jUj-687" style="shape=partialRectangle;collapsible=0;dropTarget=0;pointerEvents=0;fillColor=none;top=0;left=0;bottom=0;right=0;points=[[0,0.5],[1,0.5]];portConstraint=eastwest;" vertex="1" parent="PEksmdlY59P0YD768jUj-524">
          <mxGeometry y="1650" width="310" height="30" as="geometry" />
        </mxCell>
        <mxCell id="PEksmdlY59P0YD768jUj-688" style="shape=partialRectangle;connectable=0;fillColor=none;top=0;left=0;bottom=0;right=0;editable=1;overflow=hidden;" vertex="1" parent="PEksmdlY59P0YD768jUj-687">
          <mxGeometry width="30" height="30" as="geometry" />
        </mxCell>
        <mxCell id="PEksmdlY59P0YD768jUj-689" value="" style="shape=partialRectangle;connectable=0;fillColor=none;top=0;left=0;bottom=0;right=0;align=left;spacingLeft=6;overflow=hidden;" vertex="1" parent="PEksmdlY59P0YD768jUj-687">
          <mxGeometry x="30" width="280" height="30" as="geometry" />
        </mxCell>
        <mxCell id="PEksmdlY59P0YD768jUj-690" style="shape=partialRectangle;collapsible=0;dropTarget=0;pointerEvents=0;fillColor=none;top=0;left=0;bottom=0;right=0;points=[[0,0.5],[1,0.5]];portConstraint=eastwest;" vertex="1" parent="PEksmdlY59P0YD768jUj-524">
          <mxGeometry y="1680" width="310" height="30" as="geometry" />
        </mxCell>
        <mxCell id="PEksmdlY59P0YD768jUj-691" style="shape=partialRectangle;connectable=0;fillColor=none;top=0;left=0;bottom=0;right=0;editable=1;overflow=hidden;" vertex="1" parent="PEksmdlY59P0YD768jUj-690">
          <mxGeometry width="30" height="30" as="geometry" />
        </mxCell>
        <mxCell id="PEksmdlY59P0YD768jUj-692" value="" style="shape=partialRectangle;connectable=0;fillColor=none;top=0;left=0;bottom=0;right=0;align=left;spacingLeft=6;overflow=hidden;" vertex="1" parent="PEksmdlY59P0YD768jUj-690">
          <mxGeometry x="30" width="280" height="30" as="geometry" />
        </mxCell>
        <mxCell id="PEksmdlY59P0YD768jUj-693" style="shape=partialRectangle;collapsible=0;dropTarget=0;pointerEvents=0;fillColor=none;top=0;left=0;bottom=0;right=0;points=[[0,0.5],[1,0.5]];portConstraint=eastwest;" vertex="1" parent="PEksmdlY59P0YD768jUj-524">
          <mxGeometry y="1710" width="310" height="30" as="geometry" />
        </mxCell>
        <mxCell id="PEksmdlY59P0YD768jUj-694" style="shape=partialRectangle;connectable=0;fillColor=none;top=0;left=0;bottom=0;right=0;editable=1;overflow=hidden;" vertex="1" parent="PEksmdlY59P0YD768jUj-693">
          <mxGeometry width="30" height="30" as="geometry" />
        </mxCell>
        <mxCell id="PEksmdlY59P0YD768jUj-695" style="shape=partialRectangle;connectable=0;fillColor=none;top=0;left=0;bottom=0;right=0;align=left;spacingLeft=6;overflow=hidden;" vertex="1" parent="PEksmdlY59P0YD768jUj-693">
          <mxGeometry x="30" width="280" height="30" as="geometry" />
        </mxCell>
        <mxCell id="PEksmdlY59P0YD768jUj-88" value="FM_CHA_DYN" style="shape=table;startSize=30;container=1;collapsible=1;childLayout=tableLayout;fixedRows=1;rowLines=0;fontStyle=1;align=center;resizeLast=1;fillColor=#fff2cc;strokeColor=#d6b656;" vertex="1" parent="1">
          <mxGeometry x="-120" y="70" width="210" height="2320" as="geometry" />
        </mxCell>
        <mxCell id="PEksmdlY59P0YD768jUj-89" value="" style="shape=partialRectangle;collapsible=0;dropTarget=0;pointerEvents=0;fillColor=none;top=0;left=0;bottom=1;right=0;points=[[0,0.5],[1,0.5]];portConstraint=eastwest;" vertex="1" parent="PEksmdlY59P0YD768jUj-88">
          <mxGeometry y="30" width="210" height="30" as="geometry" />
        </mxCell>
        <mxCell id="PEksmdlY59P0YD768jUj-90" value="PK" style="shape=partialRectangle;connectable=0;fillColor=none;top=0;left=0;bottom=0;right=0;fontStyle=1;overflow=hidden;" vertex="1" parent="PEksmdlY59P0YD768jUj-89">
          <mxGeometry width="30" height="30" as="geometry" />
        </mxCell>
        <mxCell id="PEksmdlY59P0YD768jUj-91" value="ID" style="shape=partialRectangle;connectable=0;fillColor=none;top=0;left=0;bottom=0;right=0;align=left;spacingLeft=6;fontStyle=5;overflow=hidden;" vertex="1" parent="PEksmdlY59P0YD768jUj-89">
          <mxGeometry x="30" width="180" height="30" as="geometry" />
        </mxCell>
        <mxCell id="PEksmdlY59P0YD768jUj-92" value="" style="shape=partialRectangle;collapsible=0;dropTarget=0;pointerEvents=0;fillColor=none;top=0;left=0;bottom=0;right=0;points=[[0,0.5],[1,0.5]];portConstraint=eastwest;" vertex="1" parent="PEksmdlY59P0YD768jUj-88">
          <mxGeometry y="60" width="210" height="30" as="geometry" />
        </mxCell>
        <mxCell id="PEksmdlY59P0YD768jUj-93" value="&#xa;&#xa;&#xa;&#xa;&#xa;&#xa;&#xa;&#xa;&#xa;&lt;table border=&quot;0&quot; cellpadding=&quot;0&quot; cellspacing=&quot;0&quot; width=&quot;172&quot; style=&quot;border-collapse: collapse ; width: 129.03pt&quot;&gt;&#xa; &lt;colgroup&gt;&lt;col width=&quot;172&quot; style=&quot;width: 129.00pt&quot;&gt;&#xa; &lt;/colgroup&gt;&lt;tbody&gt;&lt;tr style=&quot;height: 13.50pt&quot;&gt;&#xa;  &lt;td height=&quot;18&quot; width=&quot;172&quot; style=&quot;height: 13.50pt ; width: 129.00pt&quot;&gt;EMP_NAME&lt;/td&gt;&#xa; &lt;/tr&gt;&#xa; &lt;tr style=&quot;height: 13.50pt&quot;&gt;&#xa;  &lt;td height=&quot;18&quot; style=&quot;height: 13.50pt&quot;&gt;CUST_NO&lt;/td&gt;&#xa; &lt;/tr&gt;&#xa; &lt;tr style=&quot;height: 13.50pt&quot;&gt;&#xa;  &lt;td height=&quot;18&quot; style=&quot;height: 13.50pt&quot;&gt;CUST_NAME&lt;/td&gt;&#xa; &lt;/tr&gt;&#xa; &lt;tr style=&quot;height: 13.50pt&quot;&gt;&#xa;  &lt;td height=&quot;18&quot; style=&quot;height: 13.50pt&quot;&gt;BUSI_CUST_ID&lt;/td&gt;&#xa; &lt;/tr&gt;&#xa; &lt;tr style=&quot;height: 13.50pt&quot;&gt;&#xa;  &lt;td height=&quot;18&quot; style=&quot;height: 13.50pt&quot;&gt;BUSI_CUST_NO&lt;/td&gt;&#xa; &lt;/tr&gt;&#xa; &lt;tr style=&quot;height: 13.50pt&quot;&gt;&#xa;  &lt;td height=&quot;18&quot; style=&quot;height: 13.50pt&quot;&gt;BUSI_CUST_NAME&lt;/td&gt;&#xa; &lt;/tr&gt;&#xa; &lt;tr style=&quot;height: 13.50pt&quot;&gt;&#xa;  &lt;td height=&quot;18&quot; style=&quot;height: 13.50pt&quot;&gt;BUSI_ROLE_ID&lt;/td&gt;&#xa; &lt;/tr&gt;&#xa; &lt;tr style=&quot;height: 13.50pt&quot;&gt;&#xa;  &lt;td height=&quot;18&quot; style=&quot;height: 13.50pt&quot;&gt;BUSI_REP_ID&lt;/td&gt;&#xa; &lt;/tr&gt;&#xa; &lt;tr style=&quot;height: 13.50pt&quot;&gt;&#xa;  &lt;td height=&quot;18&quot; style=&quot;height: 13.50pt&quot;&gt;BUSI_REP_NAME&lt;/td&gt;&#xa; &lt;/tr&gt;&#xa;&lt;/tbody&gt;&lt;/table&gt;&#xa;&#xa;&#xa;&#xa;&#xa;" style="shape=partialRectangle;connectable=0;fillColor=none;top=0;left=0;bottom=0;right=0;editable=1;overflow=hidden;" vertex="1" parent="PEksmdlY59P0YD768jUj-92">
          <mxGeometry width="30" height="30" as="geometry" />
        </mxCell>
        <object label="UNIQ_NO" id="PEksmdlY59P0YD768jUj-94">
          <mxCell style="shape=partialRectangle;connectable=0;fillColor=none;top=0;left=0;bottom=0;right=0;align=left;spacingLeft=6;overflow=hidden;" vertex="1" parent="PEksmdlY59P0YD768jUj-92">
            <mxGeometry x="30" width="180" height="30" as="geometry" />
          </mxCell>
        </object>
        <mxCell id="PEksmdlY59P0YD768jUj-131" style="shape=partialRectangle;collapsible=0;dropTarget=0;pointerEvents=0;fillColor=none;top=0;left=0;bottom=0;right=0;points=[[0,0.5],[1,0.5]];portConstraint=eastwest;" vertex="1" parent="PEksmdlY59P0YD768jUj-88">
          <mxGeometry y="90" width="210" height="30" as="geometry" />
        </mxCell>
        <mxCell id="PEksmdlY59P0YD768jUj-132" style="shape=partialRectangle;connectable=0;fillColor=none;top=0;left=0;bottom=0;right=0;editable=1;overflow=hidden;" vertex="1" parent="PEksmdlY59P0YD768jUj-131">
          <mxGeometry width="30" height="30" as="geometry" />
        </mxCell>
        <mxCell id="PEksmdlY59P0YD768jUj-133" value="EMP_NAME" style="shape=partialRectangle;connectable=0;fillColor=none;top=0;left=0;bottom=0;right=0;align=left;spacingLeft=6;overflow=hidden;" vertex="1" parent="PEksmdlY59P0YD768jUj-131">
          <mxGeometry x="30" width="180" height="30" as="geometry" />
        </mxCell>
        <mxCell id="PEksmdlY59P0YD768jUj-122" style="shape=partialRectangle;collapsible=0;dropTarget=0;pointerEvents=0;fillColor=none;top=0;left=0;bottom=0;right=0;points=[[0,0.5],[1,0.5]];portConstraint=eastwest;" vertex="1" parent="PEksmdlY59P0YD768jUj-88">
          <mxGeometry y="120" width="210" height="30" as="geometry" />
        </mxCell>
        <mxCell id="PEksmdlY59P0YD768jUj-123" style="shape=partialRectangle;connectable=0;fillColor=none;top=0;left=0;bottom=0;right=0;editable=1;overflow=hidden;" vertex="1" parent="PEksmdlY59P0YD768jUj-122">
          <mxGeometry width="30" height="30" as="geometry" />
        </mxCell>
        <mxCell id="PEksmdlY59P0YD768jUj-124" value="BUSI_CUST_ID" style="shape=partialRectangle;connectable=0;fillColor=none;top=0;left=0;bottom=0;right=0;align=left;spacingLeft=6;overflow=hidden;" vertex="1" parent="PEksmdlY59P0YD768jUj-122">
          <mxGeometry x="30" width="180" height="30" as="geometry" />
        </mxCell>
        <mxCell id="PEksmdlY59P0YD768jUj-113" style="shape=partialRectangle;collapsible=0;dropTarget=0;pointerEvents=0;fillColor=none;top=0;left=0;bottom=0;right=0;points=[[0,0.5],[1,0.5]];portConstraint=eastwest;" vertex="1" parent="PEksmdlY59P0YD768jUj-88">
          <mxGeometry y="150" width="210" height="30" as="geometry" />
        </mxCell>
        <mxCell id="PEksmdlY59P0YD768jUj-114" style="shape=partialRectangle;connectable=0;fillColor=none;top=0;left=0;bottom=0;right=0;editable=1;overflow=hidden;" vertex="1" parent="PEksmdlY59P0YD768jUj-113">
          <mxGeometry width="30" height="30" as="geometry" />
        </mxCell>
        <mxCell id="PEksmdlY59P0YD768jUj-115" value="BUSI_ROLE_ID" style="shape=partialRectangle;connectable=0;fillColor=none;top=0;left=0;bottom=0;right=0;align=left;spacingLeft=6;overflow=hidden;" vertex="1" parent="PEksmdlY59P0YD768jUj-113">
          <mxGeometry x="30" width="180" height="30" as="geometry" />
        </mxCell>
        <mxCell id="PEksmdlY59P0YD768jUj-741" value="" style="shape=partialRectangle;collapsible=0;dropTarget=0;pointerEvents=0;fillColor=none;top=0;left=0;bottom=0;right=0;points=[[0,0.5],[1,0.5]];portConstraint=eastwest;" vertex="1" parent="PEksmdlY59P0YD768jUj-88">
          <mxGeometry y="180" width="210" height="30" as="geometry" />
        </mxCell>
        <mxCell id="PEksmdlY59P0YD768jUj-742" value="" style="shape=partialRectangle;connectable=0;fillColor=none;top=0;left=0;bottom=0;right=0;editable=1;overflow=hidden;" vertex="1" parent="PEksmdlY59P0YD768jUj-741">
          <mxGeometry width="30" height="30" as="geometry" />
        </mxCell>
        <mxCell id="PEksmdlY59P0YD768jUj-743" value="LABOR_WAY" style="shape=partialRectangle;connectable=0;fillColor=none;top=0;left=0;bottom=0;right=0;align=left;spacingLeft=6;overflow=hidden;" vertex="1" parent="PEksmdlY59P0YD768jUj-741">
          <mxGeometry x="30" width="180" height="30" as="geometry" />
        </mxCell>
        <mxCell id="PEksmdlY59P0YD768jUj-227" style="shape=partialRectangle;collapsible=0;dropTarget=0;pointerEvents=0;fillColor=none;top=0;left=0;bottom=0;right=0;points=[[0,0.5],[1,0.5]];portConstraint=eastwest;" vertex="1" parent="PEksmdlY59P0YD768jUj-88">
          <mxGeometry y="210" width="210" height="30" as="geometry" />
        </mxCell>
        <mxCell id="PEksmdlY59P0YD768jUj-228" style="shape=partialRectangle;connectable=0;fillColor=none;top=0;left=0;bottom=0;right=0;editable=1;overflow=hidden;" vertex="1" parent="PEksmdlY59P0YD768jUj-227">
          <mxGeometry width="30" height="30" as="geometry" />
        </mxCell>
        <mxCell id="PEksmdlY59P0YD768jUj-229" value="BUSI_YM" style="shape=partialRectangle;connectable=0;fillColor=none;top=0;left=0;bottom=0;right=0;align=left;spacingLeft=6;overflow=hidden;" vertex="1" parent="PEksmdlY59P0YD768jUj-227">
          <mxGeometry x="30" width="180" height="30" as="geometry" />
        </mxCell>
        <mxCell id="PEksmdlY59P0YD768jUj-224" style="shape=partialRectangle;collapsible=0;dropTarget=0;pointerEvents=0;fillColor=none;top=0;left=0;bottom=0;right=0;points=[[0,0.5],[1,0.5]];portConstraint=eastwest;" vertex="1" parent="PEksmdlY59P0YD768jUj-88">
          <mxGeometry y="240" width="210" height="30" as="geometry" />
        </mxCell>
        <mxCell id="PEksmdlY59P0YD768jUj-225" style="shape=partialRectangle;connectable=0;fillColor=none;top=0;left=0;bottom=0;right=0;editable=1;overflow=hidden;" vertex="1" parent="PEksmdlY59P0YD768jUj-224">
          <mxGeometry width="30" height="30" as="geometry" />
        </mxCell>
        <mxCell id="PEksmdlY59P0YD768jUj-226" value="CRE_YM" style="shape=partialRectangle;connectable=0;fillColor=none;top=0;left=0;bottom=0;right=0;align=left;spacingLeft=6;overflow=hidden;" vertex="1" parent="PEksmdlY59P0YD768jUj-224">
          <mxGeometry x="30" width="180" height="30" as="geometry" />
        </mxCell>
        <mxCell id="PEksmdlY59P0YD768jUj-221" style="shape=partialRectangle;collapsible=0;dropTarget=0;pointerEvents=0;fillColor=none;top=0;left=0;bottom=0;right=0;points=[[0,0.5],[1,0.5]];portConstraint=eastwest;" vertex="1" parent="PEksmdlY59P0YD768jUj-88">
          <mxGeometry y="270" width="210" height="30" as="geometry" />
        </mxCell>
        <mxCell id="PEksmdlY59P0YD768jUj-222" style="shape=partialRectangle;connectable=0;fillColor=none;top=0;left=0;bottom=0;right=0;editable=1;overflow=hidden;" vertex="1" parent="PEksmdlY59P0YD768jUj-221">
          <mxGeometry width="30" height="30" as="geometry" />
        </mxCell>
        <mxCell id="PEksmdlY59P0YD768jUj-223" value="CHA_NOT_ID" style="shape=partialRectangle;connectable=0;fillColor=none;top=0;left=0;bottom=0;right=0;align=left;spacingLeft=6;overflow=hidden;" vertex="1" parent="PEksmdlY59P0YD768jUj-221">
          <mxGeometry x="30" width="180" height="30" as="geometry" />
        </mxCell>
        <mxCell id="PEksmdlY59P0YD768jUj-218" style="shape=partialRectangle;collapsible=0;dropTarget=0;pointerEvents=0;fillColor=none;top=0;left=0;bottom=0;right=0;points=[[0,0.5],[1,0.5]];portConstraint=eastwest;" vertex="1" parent="PEksmdlY59P0YD768jUj-88">
          <mxGeometry y="300" width="210" height="30" as="geometry" />
        </mxCell>
        <mxCell id="PEksmdlY59P0YD768jUj-219" style="shape=partialRectangle;connectable=0;fillColor=none;top=0;left=0;bottom=0;right=0;editable=1;overflow=hidden;" vertex="1" parent="PEksmdlY59P0YD768jUj-218">
          <mxGeometry width="30" height="30" as="geometry" />
        </mxCell>
        <mxCell id="PEksmdlY59P0YD768jUj-220" value="NOT_DET_ID" style="shape=partialRectangle;connectable=0;fillColor=none;top=0;left=0;bottom=0;right=0;align=left;spacingLeft=6;overflow=hidden;" vertex="1" parent="PEksmdlY59P0YD768jUj-218">
          <mxGeometry x="30" width="180" height="30" as="geometry" />
        </mxCell>
        <mxCell id="PEksmdlY59P0YD768jUj-215" style="shape=partialRectangle;collapsible=0;dropTarget=0;pointerEvents=0;fillColor=none;top=0;left=0;bottom=0;right=0;points=[[0,0.5],[1,0.5]];portConstraint=eastwest;" vertex="1" parent="PEksmdlY59P0YD768jUj-88">
          <mxGeometry y="330" width="210" height="30" as="geometry" />
        </mxCell>
        <mxCell id="PEksmdlY59P0YD768jUj-216" style="shape=partialRectangle;connectable=0;fillColor=none;top=0;left=0;bottom=0;right=0;editable=1;overflow=hidden;" vertex="1" parent="PEksmdlY59P0YD768jUj-215">
          <mxGeometry width="30" height="30" as="geometry" />
        </mxCell>
        <mxCell id="PEksmdlY59P0YD768jUj-217" value="VALUE_" style="shape=partialRectangle;connectable=0;fillColor=none;top=0;left=0;bottom=0;right=0;align=left;spacingLeft=6;overflow=hidden;" vertex="1" parent="PEksmdlY59P0YD768jUj-215">
          <mxGeometry x="30" width="180" height="30" as="geometry" />
        </mxCell>
        <mxCell id="PEksmdlY59P0YD768jUj-200" style="shape=partialRectangle;collapsible=0;dropTarget=0;pointerEvents=0;fillColor=none;top=0;left=0;bottom=0;right=0;points=[[0,0.5],[1,0.5]];portConstraint=eastwest;" vertex="1" parent="PEksmdlY59P0YD768jUj-88">
          <mxGeometry y="360" width="210" height="30" as="geometry" />
        </mxCell>
        <mxCell id="PEksmdlY59P0YD768jUj-201" style="shape=partialRectangle;connectable=0;fillColor=none;top=0;left=0;bottom=0;right=0;editable=1;overflow=hidden;" vertex="1" parent="PEksmdlY59P0YD768jUj-200">
          <mxGeometry width="30" height="30" as="geometry" />
        </mxCell>
        <mxCell id="PEksmdlY59P0YD768jUj-202" value="PROD_PRICE_ID" style="shape=partialRectangle;connectable=0;fillColor=none;top=0;left=0;bottom=0;right=0;align=left;spacingLeft=6;overflow=hidden;" vertex="1" parent="PEksmdlY59P0YD768jUj-200">
          <mxGeometry x="30" width="180" height="30" as="geometry" />
        </mxCell>
        <mxCell id="PEksmdlY59P0YD768jUj-149" style="shape=partialRectangle;collapsible=0;dropTarget=0;pointerEvents=0;fillColor=none;top=0;left=0;bottom=0;right=0;points=[[0,0.5],[1,0.5]];portConstraint=eastwest;" vertex="1" parent="PEksmdlY59P0YD768jUj-88">
          <mxGeometry y="390" width="210" height="30" as="geometry" />
        </mxCell>
        <mxCell id="PEksmdlY59P0YD768jUj-150" style="shape=partialRectangle;connectable=0;fillColor=none;top=0;left=0;bottom=0;right=0;editable=1;overflow=hidden;" vertex="1" parent="PEksmdlY59P0YD768jUj-149">
          <mxGeometry width="30" height="30" as="geometry" />
        </mxCell>
        <mxCell id="PEksmdlY59P0YD768jUj-151" value="INV_SUB_ID" style="shape=partialRectangle;connectable=0;fillColor=none;top=0;left=0;bottom=0;right=0;align=left;spacingLeft=6;overflow=hidden;" vertex="1" parent="PEksmdlY59P0YD768jUj-149">
          <mxGeometry x="30" width="180" height="30" as="geometry" />
        </mxCell>
        <mxCell id="PEksmdlY59P0YD768jUj-290" style="shape=partialRectangle;collapsible=0;dropTarget=0;pointerEvents=0;fillColor=none;top=0;left=0;bottom=0;right=0;points=[[0,0.5],[1,0.5]];portConstraint=eastwest;" vertex="1" parent="PEksmdlY59P0YD768jUj-88">
          <mxGeometry y="420" width="210" height="30" as="geometry" />
        </mxCell>
        <mxCell id="PEksmdlY59P0YD768jUj-291" style="shape=partialRectangle;connectable=0;fillColor=none;top=0;left=0;bottom=0;right=0;editable=1;overflow=hidden;" vertex="1" parent="PEksmdlY59P0YD768jUj-290">
          <mxGeometry width="30" height="30" as="geometry" />
        </mxCell>
        <mxCell id="PEksmdlY59P0YD768jUj-292" value="OI_DET_CATE" style="shape=partialRectangle;connectable=0;fillColor=none;top=0;left=0;bottom=0;right=0;align=left;spacingLeft=6;overflow=hidden;" vertex="1" parent="PEksmdlY59P0YD768jUj-290">
          <mxGeometry x="30" width="180" height="30" as="geometry" />
        </mxCell>
        <mxCell id="PEksmdlY59P0YD768jUj-266" style="shape=partialRectangle;collapsible=0;dropTarget=0;pointerEvents=0;fillColor=none;top=0;left=0;bottom=0;right=0;points=[[0,0.5],[1,0.5]];portConstraint=eastwest;" vertex="1" parent="PEksmdlY59P0YD768jUj-88">
          <mxGeometry y="450" width="210" height="30" as="geometry" />
        </mxCell>
        <mxCell id="PEksmdlY59P0YD768jUj-267" style="shape=partialRectangle;connectable=0;fillColor=none;top=0;left=0;bottom=0;right=0;editable=1;overflow=hidden;" vertex="1" parent="PEksmdlY59P0YD768jUj-266">
          <mxGeometry width="30" height="30" as="geometry" />
        </mxCell>
        <mxCell id="PEksmdlY59P0YD768jUj-268" value="PROPERTY" style="shape=partialRectangle;connectable=0;fillColor=none;top=0;left=0;bottom=0;right=0;align=left;spacingLeft=6;overflow=hidden;" vertex="1" parent="PEksmdlY59P0YD768jUj-266">
          <mxGeometry x="30" width="180" height="30" as="geometry" />
        </mxCell>
        <mxCell id="PEksmdlY59P0YD768jUj-263" style="shape=partialRectangle;collapsible=0;dropTarget=0;pointerEvents=0;fillColor=none;top=0;left=0;bottom=0;right=0;points=[[0,0.5],[1,0.5]];portConstraint=eastwest;" vertex="1" parent="PEksmdlY59P0YD768jUj-88">
          <mxGeometry y="480" width="210" height="30" as="geometry" />
        </mxCell>
        <mxCell id="PEksmdlY59P0YD768jUj-264" style="shape=partialRectangle;connectable=0;fillColor=none;top=0;left=0;bottom=0;right=0;editable=1;overflow=hidden;" vertex="1" parent="PEksmdlY59P0YD768jUj-263">
          <mxGeometry width="30" height="30" as="geometry" />
        </mxCell>
        <mxCell id="PEksmdlY59P0YD768jUj-265" value="IS_PAY_TAG" style="shape=partialRectangle;connectable=0;fillColor=none;top=0;left=0;bottom=0;right=0;align=left;spacingLeft=6;overflow=hidden;" vertex="1" parent="PEksmdlY59P0YD768jUj-263">
          <mxGeometry x="30" width="180" height="30" as="geometry" />
        </mxCell>
        <mxCell id="PEksmdlY59P0YD768jUj-260" style="shape=partialRectangle;collapsible=0;dropTarget=0;pointerEvents=0;fillColor=none;top=0;left=0;bottom=0;right=0;points=[[0,0.5],[1,0.5]];portConstraint=eastwest;" vertex="1" parent="PEksmdlY59P0YD768jUj-88">
          <mxGeometry y="510" width="210" height="30" as="geometry" />
        </mxCell>
        <mxCell id="PEksmdlY59P0YD768jUj-261" style="shape=partialRectangle;connectable=0;fillColor=none;top=0;left=0;bottom=0;right=0;editable=1;overflow=hidden;" vertex="1" parent="PEksmdlY59P0YD768jUj-260">
          <mxGeometry width="30" height="30" as="geometry" />
        </mxCell>
        <mxCell id="PEksmdlY59P0YD768jUj-262" value="AREA_NAME" style="shape=partialRectangle;connectable=0;fillColor=none;top=0;left=0;bottom=0;right=0;align=left;spacingLeft=6;overflow=hidden;" vertex="1" parent="PEksmdlY59P0YD768jUj-260">
          <mxGeometry x="30" width="180" height="30" as="geometry" />
        </mxCell>
        <mxCell id="PEksmdlY59P0YD768jUj-314" style="shape=partialRectangle;collapsible=0;dropTarget=0;pointerEvents=0;fillColor=none;top=0;left=0;bottom=0;right=0;points=[[0,0.5],[1,0.5]];portConstraint=eastwest;" vertex="1" parent="PEksmdlY59P0YD768jUj-88">
          <mxGeometry y="540" width="210" height="30" as="geometry" />
        </mxCell>
        <mxCell id="PEksmdlY59P0YD768jUj-315" style="shape=partialRectangle;connectable=0;fillColor=none;top=0;left=0;bottom=0;right=0;editable=1;overflow=hidden;" vertex="1" parent="PEksmdlY59P0YD768jUj-314">
          <mxGeometry width="30" height="30" as="geometry" />
        </mxCell>
        <mxCell id="PEksmdlY59P0YD768jUj-316" value="REMI_GET_ID" style="shape=partialRectangle;connectable=0;fillColor=none;top=0;left=0;bottom=0;right=0;align=left;spacingLeft=6;overflow=hidden;" vertex="1" parent="PEksmdlY59P0YD768jUj-314">
          <mxGeometry x="30" width="180" height="30" as="geometry" />
        </mxCell>
        <mxCell id="PEksmdlY59P0YD768jUj-311" style="shape=partialRectangle;collapsible=0;dropTarget=0;pointerEvents=0;fillColor=none;top=0;left=0;bottom=0;right=0;points=[[0,0.5],[1,0.5]];portConstraint=eastwest;" vertex="1" parent="PEksmdlY59P0YD768jUj-88">
          <mxGeometry y="570" width="210" height="30" as="geometry" />
        </mxCell>
        <mxCell id="PEksmdlY59P0YD768jUj-312" style="shape=partialRectangle;connectable=0;fillColor=none;top=0;left=0;bottom=0;right=0;editable=1;overflow=hidden;" vertex="1" parent="PEksmdlY59P0YD768jUj-311">
          <mxGeometry width="30" height="30" as="geometry" />
        </mxCell>
        <mxCell id="PEksmdlY59P0YD768jUj-313" value="IS_FULL_AMO" style="shape=partialRectangle;connectable=0;fillColor=none;top=0;left=0;bottom=0;right=0;align=left;spacingLeft=6;overflow=hidden;" vertex="1" parent="PEksmdlY59P0YD768jUj-311">
          <mxGeometry x="30" width="180" height="30" as="geometry" />
        </mxCell>
        <mxCell id="PEksmdlY59P0YD768jUj-308" style="shape=partialRectangle;collapsible=0;dropTarget=0;pointerEvents=0;fillColor=none;top=0;left=0;bottom=0;right=0;points=[[0,0.5],[1,0.5]];portConstraint=eastwest;" vertex="1" parent="PEksmdlY59P0YD768jUj-88">
          <mxGeometry y="600" width="210" height="30" as="geometry" />
        </mxCell>
        <mxCell id="PEksmdlY59P0YD768jUj-309" style="shape=partialRectangle;connectable=0;fillColor=none;top=0;left=0;bottom=0;right=0;editable=1;overflow=hidden;" vertex="1" parent="PEksmdlY59P0YD768jUj-308">
          <mxGeometry width="30" height="30" as="geometry" />
        </mxCell>
        <mxCell id="PEksmdlY59P0YD768jUj-310" value="CRE_TIME" style="shape=partialRectangle;connectable=0;fillColor=none;top=0;left=0;bottom=0;right=0;align=left;spacingLeft=6;overflow=hidden;" vertex="1" parent="PEksmdlY59P0YD768jUj-308">
          <mxGeometry x="30" width="180" height="30" as="geometry" />
        </mxCell>
        <mxCell id="PEksmdlY59P0YD768jUj-305" style="shape=partialRectangle;collapsible=0;dropTarget=0;pointerEvents=0;fillColor=none;top=0;left=0;bottom=0;right=0;points=[[0,0.5],[1,0.5]];portConstraint=eastwest;" vertex="1" parent="PEksmdlY59P0YD768jUj-88">
          <mxGeometry y="630" width="210" height="30" as="geometry" />
        </mxCell>
        <mxCell id="PEksmdlY59P0YD768jUj-306" style="shape=partialRectangle;connectable=0;fillColor=none;top=0;left=0;bottom=0;right=0;editable=1;overflow=hidden;" vertex="1" parent="PEksmdlY59P0YD768jUj-305">
          <mxGeometry width="30" height="30" as="geometry" />
        </mxCell>
        <mxCell id="PEksmdlY59P0YD768jUj-307" value="FM_YM" style="shape=partialRectangle;connectable=0;fillColor=none;top=0;left=0;bottom=0;right=0;align=left;spacingLeft=6;overflow=hidden;" vertex="1" parent="PEksmdlY59P0YD768jUj-305">
          <mxGeometry x="30" width="180" height="30" as="geometry" />
        </mxCell>
        <mxCell id="PEksmdlY59P0YD768jUj-302" style="shape=partialRectangle;collapsible=0;dropTarget=0;pointerEvents=0;fillColor=none;top=0;left=0;bottom=0;right=0;points=[[0,0.5],[1,0.5]];portConstraint=eastwest;" vertex="1" parent="PEksmdlY59P0YD768jUj-88">
          <mxGeometry y="660" width="210" height="30" as="geometry" />
        </mxCell>
        <mxCell id="PEksmdlY59P0YD768jUj-303" style="shape=partialRectangle;connectable=0;fillColor=none;top=0;left=0;bottom=0;right=0;editable=1;overflow=hidden;" vertex="1" parent="PEksmdlY59P0YD768jUj-302">
          <mxGeometry width="30" height="30" as="geometry" />
        </mxCell>
        <mxCell id="PEksmdlY59P0YD768jUj-304" value="PROD_CATE_ID" style="shape=partialRectangle;connectable=0;fillColor=none;top=0;left=0;bottom=0;right=0;align=left;spacingLeft=6;overflow=hidden;" vertex="1" parent="PEksmdlY59P0YD768jUj-302">
          <mxGeometry x="30" width="180" height="30" as="geometry" />
        </mxCell>
        <mxCell id="PEksmdlY59P0YD768jUj-299" style="shape=partialRectangle;collapsible=0;dropTarget=0;pointerEvents=0;fillColor=none;top=0;left=0;bottom=0;right=0;points=[[0,0.5],[1,0.5]];portConstraint=eastwest;" vertex="1" parent="PEksmdlY59P0YD768jUj-88">
          <mxGeometry y="690" width="210" height="30" as="geometry" />
        </mxCell>
        <mxCell id="PEksmdlY59P0YD768jUj-300" style="shape=partialRectangle;connectable=0;fillColor=none;top=0;left=0;bottom=0;right=0;editable=1;overflow=hidden;" vertex="1" parent="PEksmdlY59P0YD768jUj-299">
          <mxGeometry width="30" height="30" as="geometry" />
        </mxCell>
        <mxCell id="PEksmdlY59P0YD768jUj-301" value="PROD_CATE_NAME" style="shape=partialRectangle;connectable=0;fillColor=none;top=0;left=0;bottom=0;right=0;align=left;spacingLeft=6;overflow=hidden;" vertex="1" parent="PEksmdlY59P0YD768jUj-299">
          <mxGeometry x="30" width="180" height="30" as="geometry" />
        </mxCell>
        <mxCell id="PEksmdlY59P0YD768jUj-296" style="shape=partialRectangle;collapsible=0;dropTarget=0;pointerEvents=0;fillColor=none;top=0;left=0;bottom=0;right=0;points=[[0,0.5],[1,0.5]];portConstraint=eastwest;" vertex="1" parent="PEksmdlY59P0YD768jUj-88">
          <mxGeometry y="720" width="210" height="30" as="geometry" />
        </mxCell>
        <mxCell id="PEksmdlY59P0YD768jUj-297" style="shape=partialRectangle;connectable=0;fillColor=none;top=0;left=0;bottom=0;right=0;editable=1;overflow=hidden;" vertex="1" parent="PEksmdlY59P0YD768jUj-296">
          <mxGeometry width="30" height="30" as="geometry" />
        </mxCell>
        <mxCell id="PEksmdlY59P0YD768jUj-298" value="PROD_CATE_P_ID" style="shape=partialRectangle;connectable=0;fillColor=none;top=0;left=0;bottom=0;right=0;align=left;spacingLeft=6;overflow=hidden;" vertex="1" parent="PEksmdlY59P0YD768jUj-296">
          <mxGeometry x="30" width="180" height="30" as="geometry" />
        </mxCell>
        <mxCell id="PEksmdlY59P0YD768jUj-257" style="shape=partialRectangle;collapsible=0;dropTarget=0;pointerEvents=0;fillColor=none;top=0;left=0;bottom=0;right=0;points=[[0,0.5],[1,0.5]];portConstraint=eastwest;" vertex="1" parent="PEksmdlY59P0YD768jUj-88">
          <mxGeometry y="750" width="210" height="30" as="geometry" />
        </mxCell>
        <mxCell id="PEksmdlY59P0YD768jUj-258" style="shape=partialRectangle;connectable=0;fillColor=none;top=0;left=0;bottom=0;right=0;editable=1;overflow=hidden;" vertex="1" parent="PEksmdlY59P0YD768jUj-257">
          <mxGeometry width="30" height="30" as="geometry" />
        </mxCell>
        <mxCell id="PEksmdlY59P0YD768jUj-259" value="PROD_CATE_P_NAME" style="shape=partialRectangle;connectable=0;fillColor=none;top=0;left=0;bottom=0;right=0;align=left;spacingLeft=6;overflow=hidden;" vertex="1" parent="PEksmdlY59P0YD768jUj-257">
          <mxGeometry x="30" width="180" height="30" as="geometry" />
        </mxCell>
        <mxCell id="PEksmdlY59P0YD768jUj-254" style="shape=partialRectangle;collapsible=0;dropTarget=0;pointerEvents=0;fillColor=none;top=0;left=0;bottom=0;right=0;points=[[0,0.5],[1,0.5]];portConstraint=eastwest;" vertex="1" parent="PEksmdlY59P0YD768jUj-88">
          <mxGeometry y="780" width="210" height="30" as="geometry" />
        </mxCell>
        <mxCell id="PEksmdlY59P0YD768jUj-255" style="shape=partialRectangle;connectable=0;fillColor=none;top=0;left=0;bottom=0;right=0;editable=1;overflow=hidden;" vertex="1" parent="PEksmdlY59P0YD768jUj-254">
          <mxGeometry width="30" height="30" as="geometry" />
        </mxCell>
        <mxCell id="PEksmdlY59P0YD768jUj-256" value="CHA_TYPE" style="shape=partialRectangle;connectable=0;fillColor=none;top=0;left=0;bottom=0;right=0;align=left;spacingLeft=6;overflow=hidden;" vertex="1" parent="PEksmdlY59P0YD768jUj-254">
          <mxGeometry x="30" width="180" height="30" as="geometry" />
        </mxCell>
        <mxCell id="PEksmdlY59P0YD768jUj-251" style="shape=partialRectangle;collapsible=0;dropTarget=0;pointerEvents=0;fillColor=none;top=0;left=0;bottom=0;right=0;points=[[0,0.5],[1,0.5]];portConstraint=eastwest;" vertex="1" parent="PEksmdlY59P0YD768jUj-88">
          <mxGeometry y="810" width="210" height="30" as="geometry" />
        </mxCell>
        <mxCell id="PEksmdlY59P0YD768jUj-252" style="shape=partialRectangle;connectable=0;fillColor=none;top=0;left=0;bottom=0;right=0;editable=1;overflow=hidden;" vertex="1" parent="PEksmdlY59P0YD768jUj-251">
          <mxGeometry width="30" height="30" as="geometry" />
        </mxCell>
        <mxCell id="PEksmdlY59P0YD768jUj-253" value="TAX_RATE" style="shape=partialRectangle;connectable=0;fillColor=none;top=0;left=0;bottom=0;right=0;align=left;spacingLeft=6;overflow=hidden;" vertex="1" parent="PEksmdlY59P0YD768jUj-251">
          <mxGeometry x="30" width="180" height="30" as="geometry" />
        </mxCell>
        <mxCell id="PEksmdlY59P0YD768jUj-128" style="shape=partialRectangle;collapsible=0;dropTarget=0;pointerEvents=0;fillColor=none;top=0;left=0;bottom=0;right=0;points=[[0,0.5],[1,0.5]];portConstraint=eastwest;" vertex="1" parent="PEksmdlY59P0YD768jUj-88">
          <mxGeometry y="840" width="210" height="30" as="geometry" />
        </mxCell>
        <mxCell id="PEksmdlY59P0YD768jUj-129" style="shape=partialRectangle;connectable=0;fillColor=none;top=0;left=0;bottom=0;right=0;editable=1;overflow=hidden;" vertex="1" parent="PEksmdlY59P0YD768jUj-128">
          <mxGeometry width="30" height="30" as="geometry" />
        </mxCell>
        <mxCell id="PEksmdlY59P0YD768jUj-130" value="CUST_NO" style="shape=partialRectangle;connectable=0;fillColor=none;top=0;left=0;bottom=0;right=0;align=left;spacingLeft=6;overflow=hidden;" vertex="1" parent="PEksmdlY59P0YD768jUj-128">
          <mxGeometry x="30" width="180" height="30" as="geometry" />
        </mxCell>
        <mxCell id="PEksmdlY59P0YD768jUj-98" value="" style="shape=partialRectangle;collapsible=0;dropTarget=0;pointerEvents=0;fillColor=none;top=0;left=0;bottom=0;right=0;points=[[0,0.5],[1,0.5]];portConstraint=eastwest;" vertex="1" parent="PEksmdlY59P0YD768jUj-88">
          <mxGeometry y="870" width="210" height="40" as="geometry" />
        </mxCell>
        <mxCell id="PEksmdlY59P0YD768jUj-99" value="" style="shape=partialRectangle;connectable=0;fillColor=none;top=0;left=0;bottom=0;right=0;editable=1;overflow=hidden;" vertex="1" parent="PEksmdlY59P0YD768jUj-98">
          <mxGeometry width="30" height="40" as="geometry" />
        </mxCell>
        <mxCell id="PEksmdlY59P0YD768jUj-100" value="CUST_CON_ID" style="shape=partialRectangle;connectable=0;fillColor=none;top=0;left=0;bottom=0;right=0;align=left;spacingLeft=6;overflow=hidden;" vertex="1" parent="PEksmdlY59P0YD768jUj-98">
          <mxGeometry x="30" width="180" height="40" as="geometry" />
        </mxCell>
        <mxCell id="PEksmdlY59P0YD768jUj-239" style="shape=partialRectangle;collapsible=0;dropTarget=0;pointerEvents=0;fillColor=none;top=0;left=0;bottom=0;right=0;points=[[0,0.5],[1,0.5]];portConstraint=eastwest;" vertex="1" parent="PEksmdlY59P0YD768jUj-88">
          <mxGeometry y="910" width="210" height="30" as="geometry" />
        </mxCell>
        <mxCell id="PEksmdlY59P0YD768jUj-240" style="shape=partialRectangle;connectable=0;fillColor=none;top=0;left=0;bottom=0;right=0;editable=1;overflow=hidden;" vertex="1" parent="PEksmdlY59P0YD768jUj-239">
          <mxGeometry width="30" height="30" as="geometry" />
        </mxCell>
        <mxCell id="PEksmdlY59P0YD768jUj-241" value="ORD_SEND_SUPP_ID" style="shape=partialRectangle;connectable=0;fillColor=none;top=0;left=0;bottom=0;right=0;align=left;spacingLeft=6;overflow=hidden;" vertex="1" parent="PEksmdlY59P0YD768jUj-239">
          <mxGeometry x="30" width="180" height="30" as="geometry" />
        </mxCell>
        <mxCell id="PEksmdlY59P0YD768jUj-236" style="shape=partialRectangle;collapsible=0;dropTarget=0;pointerEvents=0;fillColor=none;top=0;left=0;bottom=0;right=0;points=[[0,0.5],[1,0.5]];portConstraint=eastwest;" vertex="1" parent="PEksmdlY59P0YD768jUj-88">
          <mxGeometry y="940" width="210" height="30" as="geometry" />
        </mxCell>
        <mxCell id="PEksmdlY59P0YD768jUj-237" style="shape=partialRectangle;connectable=0;fillColor=none;top=0;left=0;bottom=0;right=0;editable=1;overflow=hidden;" vertex="1" parent="PEksmdlY59P0YD768jUj-236">
          <mxGeometry width="30" height="30" as="geometry" />
        </mxCell>
        <mxCell id="PEksmdlY59P0YD768jUj-238" value="ORD_SEND_SUPP_NAME" style="shape=partialRectangle;connectable=0;fillColor=none;top=0;left=0;bottom=0;right=0;align=left;spacingLeft=6;overflow=hidden;" vertex="1" parent="PEksmdlY59P0YD768jUj-236">
          <mxGeometry x="30" width="180" height="30" as="geometry" />
        </mxCell>
        <mxCell id="PEksmdlY59P0YD768jUj-230" style="shape=partialRectangle;collapsible=0;dropTarget=0;pointerEvents=0;fillColor=none;top=0;left=0;bottom=0;right=0;points=[[0,0.5],[1,0.5]];portConstraint=eastwest;" vertex="1" parent="PEksmdlY59P0YD768jUj-88">
          <mxGeometry y="970" width="210" height="30" as="geometry" />
        </mxCell>
        <mxCell id="PEksmdlY59P0YD768jUj-231" style="shape=partialRectangle;connectable=0;fillColor=none;top=0;left=0;bottom=0;right=0;editable=1;overflow=hidden;" vertex="1" parent="PEksmdlY59P0YD768jUj-230">
          <mxGeometry width="30" height="30" as="geometry" />
        </mxCell>
        <mxCell id="PEksmdlY59P0YD768jUj-232" value="ORD_RECE_SUPP_NAME" style="shape=partialRectangle;connectable=0;fillColor=none;top=0;left=0;bottom=0;right=0;align=left;spacingLeft=6;overflow=hidden;" vertex="1" parent="PEksmdlY59P0YD768jUj-230">
          <mxGeometry x="30" width="180" height="30" as="geometry" />
        </mxCell>
        <mxCell id="PEksmdlY59P0YD768jUj-233" style="shape=partialRectangle;collapsible=0;dropTarget=0;pointerEvents=0;fillColor=none;top=0;left=0;bottom=0;right=0;points=[[0,0.5],[1,0.5]];portConstraint=eastwest;" vertex="1" parent="PEksmdlY59P0YD768jUj-88">
          <mxGeometry y="1000" width="210" height="30" as="geometry" />
        </mxCell>
        <mxCell id="PEksmdlY59P0YD768jUj-234" style="shape=partialRectangle;connectable=0;fillColor=none;top=0;left=0;bottom=0;right=0;editable=1;overflow=hidden;" vertex="1" parent="PEksmdlY59P0YD768jUj-233">
          <mxGeometry width="30" height="30" as="geometry" />
        </mxCell>
        <mxCell id="PEksmdlY59P0YD768jUj-235" value="ORD_RECE_SUPP_ID" style="shape=partialRectangle;connectable=0;fillColor=none;top=0;left=0;bottom=0;right=0;align=left;spacingLeft=6;overflow=hidden;" vertex="1" parent="PEksmdlY59P0YD768jUj-233">
          <mxGeometry x="30" width="180" height="30" as="geometry" />
        </mxCell>
        <mxCell id="PEksmdlY59P0YD768jUj-245" style="shape=partialRectangle;collapsible=0;dropTarget=0;pointerEvents=0;fillColor=none;top=0;left=0;bottom=0;right=0;points=[[0,0.5],[1,0.5]];portConstraint=eastwest;" vertex="1" parent="PEksmdlY59P0YD768jUj-88">
          <mxGeometry y="1030" width="210" height="30" as="geometry" />
        </mxCell>
        <mxCell id="PEksmdlY59P0YD768jUj-246" style="shape=partialRectangle;connectable=0;fillColor=none;top=0;left=0;bottom=0;right=0;editable=1;overflow=hidden;" vertex="1" parent="PEksmdlY59P0YD768jUj-245">
          <mxGeometry width="30" height="30" as="geometry" />
        </mxCell>
        <mxCell id="PEksmdlY59P0YD768jUj-247" value="CON_ACCE_ID" style="shape=partialRectangle;connectable=0;fillColor=none;top=0;left=0;bottom=0;right=0;align=left;spacingLeft=6;overflow=hidden;" vertex="1" parent="PEksmdlY59P0YD768jUj-245">
          <mxGeometry x="30" width="180" height="30" as="geometry" />
        </mxCell>
        <mxCell id="PEksmdlY59P0YD768jUj-242" style="shape=partialRectangle;collapsible=0;dropTarget=0;pointerEvents=0;fillColor=none;top=0;left=0;bottom=0;right=0;points=[[0,0.5],[1,0.5]];portConstraint=eastwest;" vertex="1" parent="PEksmdlY59P0YD768jUj-88">
          <mxGeometry y="1060" width="210" height="30" as="geometry" />
        </mxCell>
        <mxCell id="PEksmdlY59P0YD768jUj-243" style="shape=partialRectangle;connectable=0;fillColor=none;top=0;left=0;bottom=0;right=0;editable=1;overflow=hidden;" vertex="1" parent="PEksmdlY59P0YD768jUj-242">
          <mxGeometry width="30" height="30" as="geometry" />
        </mxCell>
        <mxCell id="PEksmdlY59P0YD768jUj-244" value="CON_ACCE_NAME" style="shape=partialRectangle;connectable=0;fillColor=none;top=0;left=0;bottom=0;right=0;align=left;spacingLeft=6;overflow=hidden;" vertex="1" parent="PEksmdlY59P0YD768jUj-242">
          <mxGeometry x="30" width="180" height="30" as="geometry" />
        </mxCell>
        <mxCell id="PEksmdlY59P0YD768jUj-248" style="shape=partialRectangle;collapsible=0;dropTarget=0;pointerEvents=0;fillColor=none;top=0;left=0;bottom=0;right=0;points=[[0,0.5],[1,0.5]];portConstraint=eastwest;" vertex="1" parent="PEksmdlY59P0YD768jUj-88">
          <mxGeometry y="1090" width="210" height="30" as="geometry" />
        </mxCell>
        <mxCell id="PEksmdlY59P0YD768jUj-249" style="shape=partialRectangle;connectable=0;fillColor=none;top=0;left=0;bottom=0;right=0;editable=1;overflow=hidden;" vertex="1" parent="PEksmdlY59P0YD768jUj-248">
          <mxGeometry width="30" height="30" as="geometry" />
        </mxCell>
        <mxCell id="PEksmdlY59P0YD768jUj-250" value="CUST_CON_NAME" style="shape=partialRectangle;connectable=0;fillColor=none;top=0;left=0;bottom=0;right=0;align=left;spacingLeft=6;overflow=hidden;" vertex="1" parent="PEksmdlY59P0YD768jUj-248">
          <mxGeometry x="30" width="180" height="30" as="geometry" />
        </mxCell>
        <mxCell id="PEksmdlY59P0YD768jUj-125" style="shape=partialRectangle;collapsible=0;dropTarget=0;pointerEvents=0;fillColor=none;top=0;left=0;bottom=0;right=0;points=[[0,0.5],[1,0.5]];portConstraint=eastwest;" vertex="1" parent="PEksmdlY59P0YD768jUj-88">
          <mxGeometry y="1120" width="210" height="30" as="geometry" />
        </mxCell>
        <mxCell id="PEksmdlY59P0YD768jUj-126" style="shape=partialRectangle;connectable=0;fillColor=none;top=0;left=0;bottom=0;right=0;editable=1;overflow=hidden;" vertex="1" parent="PEksmdlY59P0YD768jUj-125">
          <mxGeometry width="30" height="30" as="geometry" />
        </mxCell>
        <mxCell id="PEksmdlY59P0YD768jUj-127" value="CUST_NAME" style="shape=partialRectangle;connectable=0;fillColor=none;top=0;left=0;bottom=0;right=0;align=left;spacingLeft=6;overflow=hidden;" vertex="1" parent="PEksmdlY59P0YD768jUj-125">
          <mxGeometry x="30" width="180" height="30" as="geometry" />
        </mxCell>
        <mxCell id="PEksmdlY59P0YD768jUj-119" style="shape=partialRectangle;collapsible=0;dropTarget=0;pointerEvents=0;fillColor=none;top=0;left=0;bottom=0;right=0;points=[[0,0.5],[1,0.5]];portConstraint=eastwest;" vertex="1" parent="PEksmdlY59P0YD768jUj-88">
          <mxGeometry y="1150" width="210" height="30" as="geometry" />
        </mxCell>
        <mxCell id="PEksmdlY59P0YD768jUj-120" style="shape=partialRectangle;connectable=0;fillColor=none;top=0;left=0;bottom=0;right=0;editable=1;overflow=hidden;" vertex="1" parent="PEksmdlY59P0YD768jUj-119">
          <mxGeometry width="30" height="30" as="geometry" />
        </mxCell>
        <mxCell id="PEksmdlY59P0YD768jUj-121" value="BUSI_CUST_NO" style="shape=partialRectangle;connectable=0;fillColor=none;top=0;left=0;bottom=0;right=0;align=left;spacingLeft=6;overflow=hidden;" vertex="1" parent="PEksmdlY59P0YD768jUj-119">
          <mxGeometry x="30" width="180" height="30" as="geometry" />
        </mxCell>
        <mxCell id="PEksmdlY59P0YD768jUj-116" style="shape=partialRectangle;collapsible=0;dropTarget=0;pointerEvents=0;fillColor=none;top=0;left=0;bottom=0;right=0;points=[[0,0.5],[1,0.5]];portConstraint=eastwest;" vertex="1" parent="PEksmdlY59P0YD768jUj-88">
          <mxGeometry y="1180" width="210" height="30" as="geometry" />
        </mxCell>
        <mxCell id="PEksmdlY59P0YD768jUj-117" style="shape=partialRectangle;connectable=0;fillColor=none;top=0;left=0;bottom=0;right=0;editable=1;overflow=hidden;" vertex="1" parent="PEksmdlY59P0YD768jUj-116">
          <mxGeometry width="30" height="30" as="geometry" />
        </mxCell>
        <mxCell id="PEksmdlY59P0YD768jUj-118" value="BUSI_CUST_NAME" style="shape=partialRectangle;connectable=0;fillColor=none;top=0;left=0;bottom=0;right=0;align=left;spacingLeft=6;overflow=hidden;" vertex="1" parent="PEksmdlY59P0YD768jUj-116">
          <mxGeometry x="30" width="180" height="30" as="geometry" />
        </mxCell>
        <mxCell id="PEksmdlY59P0YD768jUj-110" style="shape=partialRectangle;collapsible=0;dropTarget=0;pointerEvents=0;fillColor=none;top=0;left=0;bottom=0;right=0;points=[[0,0.5],[1,0.5]];portConstraint=eastwest;" vertex="1" parent="PEksmdlY59P0YD768jUj-88">
          <mxGeometry y="1210" width="210" height="30" as="geometry" />
        </mxCell>
        <mxCell id="PEksmdlY59P0YD768jUj-111" style="shape=partialRectangle;connectable=0;fillColor=none;top=0;left=0;bottom=0;right=0;editable=1;overflow=hidden;" vertex="1" parent="PEksmdlY59P0YD768jUj-110">
          <mxGeometry width="30" height="30" as="geometry" />
        </mxCell>
        <mxCell id="PEksmdlY59P0YD768jUj-112" value="BUSI_REP_ID" style="shape=partialRectangle;connectable=0;fillColor=none;top=0;left=0;bottom=0;right=0;align=left;spacingLeft=6;overflow=hidden;" vertex="1" parent="PEksmdlY59P0YD768jUj-110">
          <mxGeometry x="30" width="180" height="30" as="geometry" />
        </mxCell>
        <mxCell id="PEksmdlY59P0YD768jUj-212" style="shape=partialRectangle;collapsible=0;dropTarget=0;pointerEvents=0;fillColor=none;top=0;left=0;bottom=0;right=0;points=[[0,0.5],[1,0.5]];portConstraint=eastwest;" vertex="1" parent="PEksmdlY59P0YD768jUj-88">
          <mxGeometry y="1240" width="210" height="30" as="geometry" />
        </mxCell>
        <mxCell id="PEksmdlY59P0YD768jUj-213" style="shape=partialRectangle;connectable=0;fillColor=none;top=0;left=0;bottom=0;right=0;editable=1;overflow=hidden;" vertex="1" parent="PEksmdlY59P0YD768jUj-212">
          <mxGeometry width="30" height="30" as="geometry" />
        </mxCell>
        <mxCell id="PEksmdlY59P0YD768jUj-214" value="PROD_ID" style="shape=partialRectangle;connectable=0;fillColor=none;top=0;left=0;bottom=0;right=0;align=left;spacingLeft=6;overflow=hidden;" vertex="1" parent="PEksmdlY59P0YD768jUj-212">
          <mxGeometry x="30" width="180" height="30" as="geometry" />
        </mxCell>
        <mxCell id="PEksmdlY59P0YD768jUj-197" style="shape=partialRectangle;collapsible=0;dropTarget=0;pointerEvents=0;fillColor=none;top=0;left=0;bottom=0;right=0;points=[[0,0.5],[1,0.5]];portConstraint=eastwest;" vertex="1" parent="PEksmdlY59P0YD768jUj-88">
          <mxGeometry y="1270" width="210" height="30" as="geometry" />
        </mxCell>
        <mxCell id="PEksmdlY59P0YD768jUj-198" style="shape=partialRectangle;connectable=0;fillColor=none;top=0;left=0;bottom=0;right=0;editable=1;overflow=hidden;" vertex="1" parent="PEksmdlY59P0YD768jUj-197">
          <mxGeometry width="30" height="30" as="geometry" />
        </mxCell>
        <mxCell id="PEksmdlY59P0YD768jUj-199" value="PROD_PRICE_NAME" style="shape=partialRectangle;connectable=0;fillColor=none;top=0;left=0;bottom=0;right=0;align=left;spacingLeft=6;overflow=hidden;" vertex="1" parent="PEksmdlY59P0YD768jUj-197">
          <mxGeometry x="30" width="180" height="30" as="geometry" />
        </mxCell>
        <mxCell id="PEksmdlY59P0YD768jUj-209" style="shape=partialRectangle;collapsible=0;dropTarget=0;pointerEvents=0;fillColor=none;top=0;left=0;bottom=0;right=0;points=[[0,0.5],[1,0.5]];portConstraint=eastwest;" vertex="1" parent="PEksmdlY59P0YD768jUj-88">
          <mxGeometry y="1300" width="210" height="30" as="geometry" />
        </mxCell>
        <mxCell id="PEksmdlY59P0YD768jUj-210" style="shape=partialRectangle;connectable=0;fillColor=none;top=0;left=0;bottom=0;right=0;editable=1;overflow=hidden;" vertex="1" parent="PEksmdlY59P0YD768jUj-209">
          <mxGeometry width="30" height="30" as="geometry" />
        </mxCell>
        <mxCell id="PEksmdlY59P0YD768jUj-211" value="PROD_NAME" style="shape=partialRectangle;connectable=0;fillColor=none;top=0;left=0;bottom=0;right=0;align=left;spacingLeft=6;overflow=hidden;" vertex="1" parent="PEksmdlY59P0YD768jUj-209">
          <mxGeometry x="30" width="180" height="30" as="geometry" />
        </mxCell>
        <mxCell id="PEksmdlY59P0YD768jUj-206" style="shape=partialRectangle;collapsible=0;dropTarget=0;pointerEvents=0;fillColor=none;top=0;left=0;bottom=0;right=0;points=[[0,0.5],[1,0.5]];portConstraint=eastwest;" vertex="1" parent="PEksmdlY59P0YD768jUj-88">
          <mxGeometry y="1330" width="210" height="30" as="geometry" />
        </mxCell>
        <mxCell id="PEksmdlY59P0YD768jUj-207" style="shape=partialRectangle;connectable=0;fillColor=none;top=0;left=0;bottom=0;right=0;editable=1;overflow=hidden;" vertex="1" parent="PEksmdlY59P0YD768jUj-206">
          <mxGeometry width="30" height="30" as="geometry" />
        </mxCell>
        <mxCell id="PEksmdlY59P0YD768jUj-208" value="PROD_SCHE_ID" style="shape=partialRectangle;connectable=0;fillColor=none;top=0;left=0;bottom=0;right=0;align=left;spacingLeft=6;overflow=hidden;" vertex="1" parent="PEksmdlY59P0YD768jUj-206">
          <mxGeometry x="30" width="180" height="30" as="geometry" />
        </mxCell>
        <mxCell id="PEksmdlY59P0YD768jUj-203" style="shape=partialRectangle;collapsible=0;dropTarget=0;pointerEvents=0;fillColor=none;top=0;left=0;bottom=0;right=0;points=[[0,0.5],[1,0.5]];portConstraint=eastwest;" vertex="1" parent="PEksmdlY59P0YD768jUj-88">
          <mxGeometry y="1360" width="210" height="30" as="geometry" />
        </mxCell>
        <mxCell id="PEksmdlY59P0YD768jUj-204" style="shape=partialRectangle;connectable=0;fillColor=none;top=0;left=0;bottom=0;right=0;editable=1;overflow=hidden;" vertex="1" parent="PEksmdlY59P0YD768jUj-203">
          <mxGeometry width="30" height="30" as="geometry" />
        </mxCell>
        <mxCell id="PEksmdlY59P0YD768jUj-205" value="PROD_SCHE_NAME" style="shape=partialRectangle;connectable=0;fillColor=none;top=0;left=0;bottom=0;right=0;align=left;spacingLeft=6;overflow=hidden;" vertex="1" parent="PEksmdlY59P0YD768jUj-203">
          <mxGeometry x="30" width="180" height="30" as="geometry" />
        </mxCell>
        <mxCell id="PEksmdlY59P0YD768jUj-107" style="shape=partialRectangle;collapsible=0;dropTarget=0;pointerEvents=0;fillColor=none;top=0;left=0;bottom=0;right=0;points=[[0,0.5],[1,0.5]];portConstraint=eastwest;" vertex="1" parent="PEksmdlY59P0YD768jUj-88">
          <mxGeometry y="1390" width="210" height="30" as="geometry" />
        </mxCell>
        <mxCell id="PEksmdlY59P0YD768jUj-108" style="shape=partialRectangle;connectable=0;fillColor=none;top=0;left=0;bottom=0;right=0;editable=1;overflow=hidden;" vertex="1" parent="PEksmdlY59P0YD768jUj-107">
          <mxGeometry width="30" height="30" as="geometry" />
        </mxCell>
        <mxCell id="PEksmdlY59P0YD768jUj-109" value="BUSI_REP_NAME" style="shape=partialRectangle;connectable=0;fillColor=none;top=0;left=0;bottom=0;right=0;align=left;spacingLeft=6;overflow=hidden;" vertex="1" parent="PEksmdlY59P0YD768jUj-107">
          <mxGeometry x="30" width="180" height="30" as="geometry" />
        </mxCell>
        <mxCell id="PEksmdlY59P0YD768jUj-101" style="shape=partialRectangle;collapsible=0;dropTarget=0;pointerEvents=0;fillColor=none;top=0;left=0;bottom=0;right=0;points=[[0,0.5],[1,0.5]];portConstraint=eastwest;" vertex="1" parent="PEksmdlY59P0YD768jUj-88">
          <mxGeometry y="1420" width="210" height="30" as="geometry" />
        </mxCell>
        <mxCell id="PEksmdlY59P0YD768jUj-102" style="shape=partialRectangle;connectable=0;fillColor=none;top=0;left=0;bottom=0;right=0;editable=1;overflow=hidden;" vertex="1" parent="PEksmdlY59P0YD768jUj-101">
          <mxGeometry width="30" height="30" as="geometry" />
        </mxCell>
        <mxCell id="PEksmdlY59P0YD768jUj-103" value="BUSI_DEP_NAME" style="shape=partialRectangle;connectable=0;fillColor=none;top=0;left=0;bottom=0;right=0;align=left;spacingLeft=6;overflow=hidden;" vertex="1" parent="PEksmdlY59P0YD768jUj-101">
          <mxGeometry x="30" width="180" height="30" as="geometry" />
        </mxCell>
        <mxCell id="PEksmdlY59P0YD768jUj-146" style="shape=partialRectangle;collapsible=0;dropTarget=0;pointerEvents=0;fillColor=none;top=0;left=0;bottom=0;right=0;points=[[0,0.5],[1,0.5]];portConstraint=eastwest;" vertex="1" parent="PEksmdlY59P0YD768jUj-88">
          <mxGeometry y="1450" width="210" height="30" as="geometry" />
        </mxCell>
        <mxCell id="PEksmdlY59P0YD768jUj-147" style="shape=partialRectangle;connectable=0;fillColor=none;top=0;left=0;bottom=0;right=0;editable=1;overflow=hidden;" vertex="1" parent="PEksmdlY59P0YD768jUj-146">
          <mxGeometry width="30" height="30" as="geometry" />
        </mxCell>
        <mxCell id="PEksmdlY59P0YD768jUj-148" value="INV_SUB_NAME" style="shape=partialRectangle;connectable=0;fillColor=none;top=0;left=0;bottom=0;right=0;align=left;spacingLeft=6;overflow=hidden;" vertex="1" parent="PEksmdlY59P0YD768jUj-146">
          <mxGeometry x="30" width="180" height="30" as="geometry" />
        </mxCell>
        <mxCell id="PEksmdlY59P0YD768jUj-143" style="shape=partialRectangle;collapsible=0;dropTarget=0;pointerEvents=0;fillColor=none;top=0;left=0;bottom=0;right=0;points=[[0,0.5],[1,0.5]];portConstraint=eastwest;" vertex="1" parent="PEksmdlY59P0YD768jUj-88">
          <mxGeometry y="1480" width="210" height="30" as="geometry" />
        </mxCell>
        <mxCell id="PEksmdlY59P0YD768jUj-144" style="shape=partialRectangle;connectable=0;fillColor=none;top=0;left=0;bottom=0;right=0;editable=1;overflow=hidden;" vertex="1" parent="PEksmdlY59P0YD768jUj-143">
          <mxGeometry width="30" height="30" as="geometry" />
        </mxCell>
        <mxCell id="PEksmdlY59P0YD768jUj-145" value="ACCU_PAY_FEES_WAY" style="shape=partialRectangle;connectable=0;fillColor=none;top=0;left=0;bottom=0;right=0;align=left;spacingLeft=6;overflow=hidden;" vertex="1" parent="PEksmdlY59P0YD768jUj-143">
          <mxGeometry x="30" width="180" height="30" as="geometry" />
        </mxCell>
        <mxCell id="PEksmdlY59P0YD768jUj-140" style="shape=partialRectangle;collapsible=0;dropTarget=0;pointerEvents=0;fillColor=none;top=0;left=0;bottom=0;right=0;points=[[0,0.5],[1,0.5]];portConstraint=eastwest;" vertex="1" parent="PEksmdlY59P0YD768jUj-88">
          <mxGeometry y="1510" width="210" height="30" as="geometry" />
        </mxCell>
        <mxCell id="PEksmdlY59P0YD768jUj-141" style="shape=partialRectangle;connectable=0;fillColor=none;top=0;left=0;bottom=0;right=0;editable=1;overflow=hidden;" vertex="1" parent="PEksmdlY59P0YD768jUj-140">
          <mxGeometry width="30" height="30" as="geometry" />
        </mxCell>
        <mxCell id="PEksmdlY59P0YD768jUj-142" value="ACCU_PAY_WAY" style="shape=partialRectangle;connectable=0;fillColor=none;top=0;left=0;bottom=0;right=0;align=left;spacingLeft=6;overflow=hidden;" vertex="1" parent="PEksmdlY59P0YD768jUj-140">
          <mxGeometry x="30" width="180" height="30" as="geometry" />
        </mxCell>
        <mxCell id="PEksmdlY59P0YD768jUj-137" style="shape=partialRectangle;collapsible=0;dropTarget=0;pointerEvents=0;fillColor=none;top=0;left=0;bottom=0;right=0;points=[[0,0.5],[1,0.5]];portConstraint=eastwest;" vertex="1" parent="PEksmdlY59P0YD768jUj-88">
          <mxGeometry y="1540" width="210" height="30" as="geometry" />
        </mxCell>
        <mxCell id="PEksmdlY59P0YD768jUj-138" style="shape=partialRectangle;connectable=0;fillColor=none;top=0;left=0;bottom=0;right=0;editable=1;overflow=hidden;" vertex="1" parent="PEksmdlY59P0YD768jUj-137">
          <mxGeometry width="30" height="30" as="geometry" />
        </mxCell>
        <mxCell id="PEksmdlY59P0YD768jUj-139" value="YES_NO_ACCU" style="shape=partialRectangle;connectable=0;fillColor=none;top=0;left=0;bottom=0;right=0;align=left;spacingLeft=6;overflow=hidden;" vertex="1" parent="PEksmdlY59P0YD768jUj-137">
          <mxGeometry x="30" width="180" height="30" as="geometry" />
        </mxCell>
        <mxCell id="PEksmdlY59P0YD768jUj-293" style="shape=partialRectangle;collapsible=0;dropTarget=0;pointerEvents=0;fillColor=none;top=0;left=0;bottom=0;right=0;points=[[0,0.5],[1,0.5]];portConstraint=eastwest;" vertex="1" parent="PEksmdlY59P0YD768jUj-88">
          <mxGeometry y="1570" width="210" height="30" as="geometry" />
        </mxCell>
        <mxCell id="PEksmdlY59P0YD768jUj-294" style="shape=partialRectangle;connectable=0;fillColor=none;top=0;left=0;bottom=0;right=0;editable=1;overflow=hidden;" vertex="1" parent="PEksmdlY59P0YD768jUj-293">
          <mxGeometry width="30" height="30" as="geometry" />
        </mxCell>
        <mxCell id="PEksmdlY59P0YD768jUj-295" value="INS_PAY_WAY" style="shape=partialRectangle;connectable=0;fillColor=none;top=0;left=0;bottom=0;right=0;align=left;spacingLeft=6;overflow=hidden;" vertex="1" parent="PEksmdlY59P0YD768jUj-293">
          <mxGeometry x="30" width="180" height="30" as="geometry" />
        </mxCell>
        <mxCell id="PEksmdlY59P0YD768jUj-134" style="shape=partialRectangle;collapsible=0;dropTarget=0;pointerEvents=0;fillColor=none;top=0;left=0;bottom=0;right=0;points=[[0,0.5],[1,0.5]];portConstraint=eastwest;" vertex="1" parent="PEksmdlY59P0YD768jUj-88">
          <mxGeometry y="1600" width="210" height="30" as="geometry" />
        </mxCell>
        <mxCell id="PEksmdlY59P0YD768jUj-135" style="shape=partialRectangle;connectable=0;fillColor=none;top=0;left=0;bottom=0;right=0;editable=1;overflow=hidden;" vertex="1" parent="PEksmdlY59P0YD768jUj-134">
          <mxGeometry width="30" height="30" as="geometry" />
        </mxCell>
        <mxCell id="PEksmdlY59P0YD768jUj-136" value="INS_PAY_FEES_WAY" style="shape=partialRectangle;connectable=0;fillColor=none;top=0;left=0;bottom=0;right=0;align=left;spacingLeft=6;overflow=hidden;" vertex="1" parent="PEksmdlY59P0YD768jUj-134">
          <mxGeometry x="30" width="180" height="30" as="geometry" />
        </mxCell>
        <mxCell id="PEksmdlY59P0YD768jUj-104" style="shape=partialRectangle;collapsible=0;dropTarget=0;pointerEvents=0;fillColor=none;top=0;left=0;bottom=0;right=0;points=[[0,0.5],[1,0.5]];portConstraint=eastwest;" vertex="1" parent="PEksmdlY59P0YD768jUj-88">
          <mxGeometry y="1630" width="210" height="30" as="geometry" />
        </mxCell>
        <mxCell id="PEksmdlY59P0YD768jUj-105" value="pi " style="shape=partialRectangle;connectable=0;fillColor=none;top=0;left=0;bottom=0;right=0;editable=1;overflow=hidden;" vertex="1" parent="PEksmdlY59P0YD768jUj-104">
          <mxGeometry width="30" height="30" as="geometry" />
        </mxCell>
        <mxCell id="PEksmdlY59P0YD768jUj-106" value="BUSI_DEP_ID" style="shape=partialRectangle;connectable=0;fillColor=none;top=0;left=0;bottom=0;right=0;align=left;spacingLeft=6;overflow=hidden;" vertex="1" parent="PEksmdlY59P0YD768jUj-104">
          <mxGeometry x="30" width="180" height="30" as="geometry" />
        </mxCell>
        <mxCell id="PEksmdlY59P0YD768jUj-194" style="shape=partialRectangle;collapsible=0;dropTarget=0;pointerEvents=0;fillColor=none;top=0;left=0;bottom=0;right=0;points=[[0,0.5],[1,0.5]];portConstraint=eastwest;" vertex="1" parent="PEksmdlY59P0YD768jUj-88">
          <mxGeometry y="1660" width="210" height="30" as="geometry" />
        </mxCell>
        <mxCell id="PEksmdlY59P0YD768jUj-195" style="shape=partialRectangle;connectable=0;fillColor=none;top=0;left=0;bottom=0;right=0;editable=1;overflow=hidden;" vertex="1" parent="PEksmdlY59P0YD768jUj-194">
          <mxGeometry width="30" height="30" as="geometry" />
        </mxCell>
        <mxCell id="PEksmdlY59P0YD768jUj-196" value="CHA_TAG" style="shape=partialRectangle;connectable=0;fillColor=none;top=0;left=0;bottom=0;right=0;align=left;spacingLeft=6;overflow=hidden;" vertex="1" parent="PEksmdlY59P0YD768jUj-194">
          <mxGeometry x="30" width="180" height="30" as="geometry" />
        </mxCell>
        <mxCell id="PEksmdlY59P0YD768jUj-191" style="shape=partialRectangle;collapsible=0;dropTarget=0;pointerEvents=0;fillColor=none;top=0;left=0;bottom=0;right=0;points=[[0,0.5],[1,0.5]];portConstraint=eastwest;" vertex="1" parent="PEksmdlY59P0YD768jUj-88">
          <mxGeometry y="1690" width="210" height="30" as="geometry" />
        </mxCell>
        <mxCell id="PEksmdlY59P0YD768jUj-192" style="shape=partialRectangle;connectable=0;fillColor=none;top=0;left=0;bottom=0;right=0;editable=1;overflow=hidden;" vertex="1" parent="PEksmdlY59P0YD768jUj-191">
          <mxGeometry width="30" height="30" as="geometry" />
        </mxCell>
        <mxCell id="PEksmdlY59P0YD768jUj-193" value="LOG_TIME" style="shape=partialRectangle;connectable=0;fillColor=none;top=0;left=0;bottom=0;right=0;align=left;spacingLeft=6;overflow=hidden;" vertex="1" parent="PEksmdlY59P0YD768jUj-191">
          <mxGeometry x="30" width="180" height="30" as="geometry" />
        </mxCell>
        <mxCell id="PEksmdlY59P0YD768jUj-188" style="shape=partialRectangle;collapsible=0;dropTarget=0;pointerEvents=0;fillColor=none;top=0;left=0;bottom=0;right=0;points=[[0,0.5],[1,0.5]];portConstraint=eastwest;" vertex="1" parent="PEksmdlY59P0YD768jUj-88">
          <mxGeometry y="1720" width="210" height="30" as="geometry" />
        </mxCell>
        <mxCell id="PEksmdlY59P0YD768jUj-189" style="shape=partialRectangle;connectable=0;fillColor=none;top=0;left=0;bottom=0;right=0;editable=1;overflow=hidden;" vertex="1" parent="PEksmdlY59P0YD768jUj-188">
          <mxGeometry width="30" height="30" as="geometry" />
        </mxCell>
        <mxCell id="PEksmdlY59P0YD768jUj-190" value="CHA_YM" style="shape=partialRectangle;connectable=0;fillColor=none;top=0;left=0;bottom=0;right=0;align=left;spacingLeft=6;overflow=hidden;" vertex="1" parent="PEksmdlY59P0YD768jUj-188">
          <mxGeometry x="30" width="180" height="30" as="geometry" />
        </mxCell>
        <mxCell id="PEksmdlY59P0YD768jUj-287" style="shape=partialRectangle;collapsible=0;dropTarget=0;pointerEvents=0;fillColor=none;top=0;left=0;bottom=0;right=0;points=[[0,0.5],[1,0.5]];portConstraint=eastwest;" vertex="1" parent="PEksmdlY59P0YD768jUj-88">
          <mxGeometry y="1750" width="210" height="30" as="geometry" />
        </mxCell>
        <mxCell id="PEksmdlY59P0YD768jUj-288" style="shape=partialRectangle;connectable=0;fillColor=none;top=0;left=0;bottom=0;right=0;editable=1;overflow=hidden;" vertex="1" parent="PEksmdlY59P0YD768jUj-287">
          <mxGeometry width="30" height="30" as="geometry" />
        </mxCell>
        <mxCell id="PEksmdlY59P0YD768jUj-289" value="INS_ACPE_AMO" style="shape=partialRectangle;connectable=0;fillColor=none;top=0;left=0;bottom=0;right=0;align=left;spacingLeft=6;overflow=hidden;" vertex="1" parent="PEksmdlY59P0YD768jUj-287">
          <mxGeometry x="30" width="180" height="30" as="geometry" />
        </mxCell>
        <mxCell id="PEksmdlY59P0YD768jUj-284" style="shape=partialRectangle;collapsible=0;dropTarget=0;pointerEvents=0;fillColor=none;top=0;left=0;bottom=0;right=0;points=[[0,0.5],[1,0.5]];portConstraint=eastwest;" vertex="1" parent="PEksmdlY59P0YD768jUj-88">
          <mxGeometry y="1780" width="210" height="30" as="geometry" />
        </mxCell>
        <mxCell id="PEksmdlY59P0YD768jUj-285" style="shape=partialRectangle;connectable=0;fillColor=none;top=0;left=0;bottom=0;right=0;editable=1;overflow=hidden;" vertex="1" parent="PEksmdlY59P0YD768jUj-284">
          <mxGeometry width="30" height="30" as="geometry" />
        </mxCell>
        <mxCell id="PEksmdlY59P0YD768jUj-286" value="WAGE_ACPE_AMO" style="shape=partialRectangle;connectable=0;fillColor=none;top=0;left=0;bottom=0;right=0;align=left;spacingLeft=6;overflow=hidden;" vertex="1" parent="PEksmdlY59P0YD768jUj-284">
          <mxGeometry x="30" width="180" height="30" as="geometry" />
        </mxCell>
        <mxCell id="PEksmdlY59P0YD768jUj-281" style="shape=partialRectangle;collapsible=0;dropTarget=0;pointerEvents=0;fillColor=none;top=0;left=0;bottom=0;right=0;points=[[0,0.5],[1,0.5]];portConstraint=eastwest;" vertex="1" parent="PEksmdlY59P0YD768jUj-88">
          <mxGeometry y="1810" width="210" height="30" as="geometry" />
        </mxCell>
        <mxCell id="PEksmdlY59P0YD768jUj-282" style="shape=partialRectangle;connectable=0;fillColor=none;top=0;left=0;bottom=0;right=0;editable=1;overflow=hidden;" vertex="1" parent="PEksmdlY59P0YD768jUj-281">
          <mxGeometry width="30" height="30" as="geometry" />
        </mxCell>
        <mxCell id="PEksmdlY59P0YD768jUj-283" value="ACCU_ACPE_AMO" style="shape=partialRectangle;connectable=0;fillColor=none;top=0;left=0;bottom=0;right=0;align=left;spacingLeft=6;overflow=hidden;" vertex="1" parent="PEksmdlY59P0YD768jUj-281">
          <mxGeometry x="30" width="180" height="30" as="geometry" />
        </mxCell>
        <mxCell id="PEksmdlY59P0YD768jUj-278" style="shape=partialRectangle;collapsible=0;dropTarget=0;pointerEvents=0;fillColor=none;top=0;left=0;bottom=0;right=0;points=[[0,0.5],[1,0.5]];portConstraint=eastwest;" vertex="1" parent="PEksmdlY59P0YD768jUj-88">
          <mxGeometry y="1840" width="210" height="30" as="geometry" />
        </mxCell>
        <mxCell id="PEksmdlY59P0YD768jUj-279" style="shape=partialRectangle;connectable=0;fillColor=none;top=0;left=0;bottom=0;right=0;editable=1;overflow=hidden;" vertex="1" parent="PEksmdlY59P0YD768jUj-278">
          <mxGeometry width="30" height="30" as="geometry" />
        </mxCell>
        <mxCell id="PEksmdlY59P0YD768jUj-280" value="OLD_SYS_CHA_FLAG" style="shape=partialRectangle;connectable=0;fillColor=none;top=0;left=0;bottom=0;right=0;align=left;spacingLeft=6;overflow=hidden;" vertex="1" parent="PEksmdlY59P0YD768jUj-278">
          <mxGeometry x="30" width="180" height="30" as="geometry" />
        </mxCell>
        <mxCell id="PEksmdlY59P0YD768jUj-275" style="shape=partialRectangle;collapsible=0;dropTarget=0;pointerEvents=0;fillColor=none;top=0;left=0;bottom=0;right=0;points=[[0,0.5],[1,0.5]];portConstraint=eastwest;" vertex="1" parent="PEksmdlY59P0YD768jUj-88">
          <mxGeometry y="1870" width="210" height="30" as="geometry" />
        </mxCell>
        <mxCell id="PEksmdlY59P0YD768jUj-276" style="shape=partialRectangle;connectable=0;fillColor=none;top=0;left=0;bottom=0;right=0;editable=1;overflow=hidden;" vertex="1" parent="PEksmdlY59P0YD768jUj-275">
          <mxGeometry width="30" height="30" as="geometry" />
        </mxCell>
        <mxCell id="PEksmdlY59P0YD768jUj-277" value="CHA_NOT_TYPE" style="shape=partialRectangle;connectable=0;fillColor=none;top=0;left=0;bottom=0;right=0;align=left;spacingLeft=6;overflow=hidden;" vertex="1" parent="PEksmdlY59P0YD768jUj-275">
          <mxGeometry x="30" width="180" height="30" as="geometry" />
        </mxCell>
        <mxCell id="PEksmdlY59P0YD768jUj-269" style="shape=partialRectangle;collapsible=0;dropTarget=0;pointerEvents=0;fillColor=none;top=0;left=0;bottom=0;right=0;points=[[0,0.5],[1,0.5]];portConstraint=eastwest;" vertex="1" parent="PEksmdlY59P0YD768jUj-88">
          <mxGeometry y="1900" width="210" height="30" as="geometry" />
        </mxCell>
        <mxCell id="PEksmdlY59P0YD768jUj-270" style="shape=partialRectangle;connectable=0;fillColor=none;top=0;left=0;bottom=0;right=0;editable=1;overflow=hidden;" vertex="1" parent="PEksmdlY59P0YD768jUj-269">
          <mxGeometry width="30" height="30" as="geometry" />
        </mxCell>
        <mxCell id="PEksmdlY59P0YD768jUj-271" value="LAST_CHA_DATE" style="shape=partialRectangle;connectable=0;fillColor=none;top=0;left=0;bottom=0;right=0;align=left;spacingLeft=6;overflow=hidden;" vertex="1" parent="PEksmdlY59P0YD768jUj-269">
          <mxGeometry x="30" width="180" height="30" as="geometry" />
        </mxCell>
        <mxCell id="PEksmdlY59P0YD768jUj-272" style="shape=partialRectangle;collapsible=0;dropTarget=0;pointerEvents=0;fillColor=none;top=0;left=0;bottom=0;right=0;points=[[0,0.5],[1,0.5]];portConstraint=eastwest;" vertex="1" parent="PEksmdlY59P0YD768jUj-88">
          <mxGeometry y="1930" width="210" height="30" as="geometry" />
        </mxCell>
        <mxCell id="PEksmdlY59P0YD768jUj-273" style="shape=partialRectangle;connectable=0;fillColor=none;top=0;left=0;bottom=0;right=0;editable=1;overflow=hidden;" vertex="1" parent="PEksmdlY59P0YD768jUj-272">
          <mxGeometry width="30" height="30" as="geometry" />
        </mxCell>
        <mxCell id="PEksmdlY59P0YD768jUj-274" value="ACC_PER" style="shape=partialRectangle;connectable=0;fillColor=none;top=0;left=0;bottom=0;right=0;align=left;spacingLeft=6;overflow=hidden;" vertex="1" parent="PEksmdlY59P0YD768jUj-272">
          <mxGeometry x="30" width="180" height="30" as="geometry" />
        </mxCell>
        <mxCell id="PEksmdlY59P0YD768jUj-185" style="shape=partialRectangle;collapsible=0;dropTarget=0;pointerEvents=0;fillColor=none;top=0;left=0;bottom=0;right=0;points=[[0,0.5],[1,0.5]];portConstraint=eastwest;" vertex="1" parent="PEksmdlY59P0YD768jUj-88">
          <mxGeometry y="1960" width="210" height="30" as="geometry" />
        </mxCell>
        <mxCell id="PEksmdlY59P0YD768jUj-186" style="shape=partialRectangle;connectable=0;fillColor=none;top=0;left=0;bottom=0;right=0;editable=1;overflow=hidden;" vertex="1" parent="PEksmdlY59P0YD768jUj-185">
          <mxGeometry width="30" height="30" as="geometry" />
        </mxCell>
        <mxCell id="PEksmdlY59P0YD768jUj-187" value="LOG_OPE_ID" style="shape=partialRectangle;connectable=0;fillColor=none;top=0;left=0;bottom=0;right=0;align=left;spacingLeft=6;overflow=hidden;" vertex="1" parent="PEksmdlY59P0YD768jUj-185">
          <mxGeometry x="30" width="180" height="30" as="geometry" />
        </mxCell>
        <mxCell id="PEksmdlY59P0YD768jUj-182" style="shape=partialRectangle;collapsible=0;dropTarget=0;pointerEvents=0;fillColor=none;top=0;left=0;bottom=0;right=0;points=[[0,0.5],[1,0.5]];portConstraint=eastwest;" vertex="1" parent="PEksmdlY59P0YD768jUj-88">
          <mxGeometry y="1990" width="210" height="30" as="geometry" />
        </mxCell>
        <mxCell id="PEksmdlY59P0YD768jUj-183" style="shape=partialRectangle;connectable=0;fillColor=none;top=0;left=0;bottom=0;right=0;editable=1;overflow=hidden;" vertex="1" parent="PEksmdlY59P0YD768jUj-182">
          <mxGeometry width="30" height="30" as="geometry" />
        </mxCell>
        <mxCell id="PEksmdlY59P0YD768jUj-184" value="LOG_OPE_NAME" style="shape=partialRectangle;connectable=0;fillColor=none;top=0;left=0;bottom=0;right=0;align=left;spacingLeft=6;overflow=hidden;" vertex="1" parent="PEksmdlY59P0YD768jUj-182">
          <mxGeometry x="30" width="180" height="30" as="geometry" />
        </mxCell>
        <mxCell id="PEksmdlY59P0YD768jUj-179" style="shape=partialRectangle;collapsible=0;dropTarget=0;pointerEvents=0;fillColor=none;top=0;left=0;bottom=0;right=0;points=[[0,0.5],[1,0.5]];portConstraint=eastwest;" vertex="1" parent="PEksmdlY59P0YD768jUj-88">
          <mxGeometry y="2020" width="210" height="30" as="geometry" />
        </mxCell>
        <mxCell id="PEksmdlY59P0YD768jUj-180" style="shape=partialRectangle;connectable=0;fillColor=none;top=0;left=0;bottom=0;right=0;editable=1;overflow=hidden;" vertex="1" parent="PEksmdlY59P0YD768jUj-179">
          <mxGeometry width="30" height="30" as="geometry" />
        </mxCell>
        <mxCell id="PEksmdlY59P0YD768jUj-181" value="INV_TAG" style="shape=partialRectangle;connectable=0;fillColor=none;top=0;left=0;bottom=0;right=0;align=left;spacingLeft=6;overflow=hidden;" vertex="1" parent="PEksmdlY59P0YD768jUj-179">
          <mxGeometry x="30" width="180" height="30" as="geometry" />
        </mxCell>
        <mxCell id="PEksmdlY59P0YD768jUj-176" style="shape=partialRectangle;collapsible=0;dropTarget=0;pointerEvents=0;fillColor=none;top=0;left=0;bottom=0;right=0;points=[[0,0.5],[1,0.5]];portConstraint=eastwest;" vertex="1" parent="PEksmdlY59P0YD768jUj-88">
          <mxGeometry y="2050" width="210" height="30" as="geometry" />
        </mxCell>
        <mxCell id="PEksmdlY59P0YD768jUj-177" style="shape=partialRectangle;connectable=0;fillColor=none;top=0;left=0;bottom=0;right=0;editable=1;overflow=hidden;" vertex="1" parent="PEksmdlY59P0YD768jUj-176">
          <mxGeometry width="30" height="30" as="geometry" />
        </mxCell>
        <mxCell id="PEksmdlY59P0YD768jUj-178" value="INV_TIME" style="shape=partialRectangle;connectable=0;fillColor=none;top=0;left=0;bottom=0;right=0;align=left;spacingLeft=6;overflow=hidden;" vertex="1" parent="PEksmdlY59P0YD768jUj-176">
          <mxGeometry x="30" width="180" height="30" as="geometry" />
        </mxCell>
        <mxCell id="PEksmdlY59P0YD768jUj-173" style="shape=partialRectangle;collapsible=0;dropTarget=0;pointerEvents=0;fillColor=none;top=0;left=0;bottom=0;right=0;points=[[0,0.5],[1,0.5]];portConstraint=eastwest;" vertex="1" parent="PEksmdlY59P0YD768jUj-88">
          <mxGeometry y="2080" width="210" height="30" as="geometry" />
        </mxCell>
        <mxCell id="PEksmdlY59P0YD768jUj-174" style="shape=partialRectangle;connectable=0;fillColor=none;top=0;left=0;bottom=0;right=0;editable=1;overflow=hidden;" vertex="1" parent="PEksmdlY59P0YD768jUj-173">
          <mxGeometry width="30" height="30" as="geometry" />
        </mxCell>
        <mxCell id="PEksmdlY59P0YD768jUj-175" value="INV_OPE_ID" style="shape=partialRectangle;connectable=0;fillColor=none;top=0;left=0;bottom=0;right=0;align=left;spacingLeft=6;overflow=hidden;" vertex="1" parent="PEksmdlY59P0YD768jUj-173">
          <mxGeometry x="30" width="180" height="30" as="geometry" />
        </mxCell>
        <mxCell id="PEksmdlY59P0YD768jUj-167" style="shape=partialRectangle;collapsible=0;dropTarget=0;pointerEvents=0;fillColor=none;top=0;left=0;bottom=0;right=0;points=[[0,0.5],[1,0.5]];portConstraint=eastwest;" vertex="1" parent="PEksmdlY59P0YD768jUj-88">
          <mxGeometry y="2110" width="210" height="30" as="geometry" />
        </mxCell>
        <mxCell id="PEksmdlY59P0YD768jUj-168" style="shape=partialRectangle;connectable=0;fillColor=none;top=0;left=0;bottom=0;right=0;editable=1;overflow=hidden;" vertex="1" parent="PEksmdlY59P0YD768jUj-167">
          <mxGeometry width="30" height="30" as="geometry" />
        </mxCell>
        <mxCell id="PEksmdlY59P0YD768jUj-169" value="INV_NO" style="shape=partialRectangle;connectable=0;fillColor=none;top=0;left=0;bottom=0;right=0;align=left;spacingLeft=6;overflow=hidden;" vertex="1" parent="PEksmdlY59P0YD768jUj-167">
          <mxGeometry x="30" width="180" height="30" as="geometry" />
        </mxCell>
        <mxCell id="PEksmdlY59P0YD768jUj-164" style="shape=partialRectangle;collapsible=0;dropTarget=0;pointerEvents=0;fillColor=none;top=0;left=0;bottom=0;right=0;points=[[0,0.5],[1,0.5]];portConstraint=eastwest;" vertex="1" parent="PEksmdlY59P0YD768jUj-88">
          <mxGeometry y="2140" width="210" height="30" as="geometry" />
        </mxCell>
        <mxCell id="PEksmdlY59P0YD768jUj-165" style="shape=partialRectangle;connectable=0;fillColor=none;top=0;left=0;bottom=0;right=0;editable=1;overflow=hidden;" vertex="1" parent="PEksmdlY59P0YD768jUj-164">
          <mxGeometry width="30" height="30" as="geometry" />
        </mxCell>
        <mxCell id="PEksmdlY59P0YD768jUj-166" value="PO_NO" style="shape=partialRectangle;connectable=0;fillColor=none;top=0;left=0;bottom=0;right=0;align=left;spacingLeft=6;overflow=hidden;" vertex="1" parent="PEksmdlY59P0YD768jUj-164">
          <mxGeometry x="30" width="180" height="30" as="geometry" />
        </mxCell>
        <mxCell id="PEksmdlY59P0YD768jUj-161" style="shape=partialRectangle;collapsible=0;dropTarget=0;pointerEvents=0;fillColor=none;top=0;left=0;bottom=0;right=0;points=[[0,0.5],[1,0.5]];portConstraint=eastwest;" vertex="1" parent="PEksmdlY59P0YD768jUj-88">
          <mxGeometry y="2170" width="210" height="30" as="geometry" />
        </mxCell>
        <mxCell id="PEksmdlY59P0YD768jUj-162" style="shape=partialRectangle;connectable=0;fillColor=none;top=0;left=0;bottom=0;right=0;editable=1;overflow=hidden;" vertex="1" parent="PEksmdlY59P0YD768jUj-161">
          <mxGeometry width="30" height="30" as="geometry" />
        </mxCell>
        <mxCell id="PEksmdlY59P0YD768jUj-163" value="INV_UNIT_NAME" style="shape=partialRectangle;connectable=0;fillColor=none;top=0;left=0;bottom=0;right=0;align=left;spacingLeft=6;overflow=hidden;" vertex="1" parent="PEksmdlY59P0YD768jUj-161">
          <mxGeometry x="30" width="180" height="30" as="geometry" />
        </mxCell>
        <mxCell id="PEksmdlY59P0YD768jUj-158" style="shape=partialRectangle;collapsible=0;dropTarget=0;pointerEvents=0;fillColor=none;top=0;left=0;bottom=0;right=0;points=[[0,0.5],[1,0.5]];portConstraint=eastwest;" vertex="1" parent="PEksmdlY59P0YD768jUj-88">
          <mxGeometry y="2200" width="210" height="30" as="geometry" />
        </mxCell>
        <mxCell id="PEksmdlY59P0YD768jUj-159" style="shape=partialRectangle;connectable=0;fillColor=none;top=0;left=0;bottom=0;right=0;editable=1;overflow=hidden;" vertex="1" parent="PEksmdlY59P0YD768jUj-158">
          <mxGeometry width="30" height="30" as="geometry" />
        </mxCell>
        <mxCell id="PEksmdlY59P0YD768jUj-160" value="BILL_TYPE" style="shape=partialRectangle;connectable=0;fillColor=none;top=0;left=0;bottom=0;right=0;align=left;spacingLeft=6;overflow=hidden;" vertex="1" parent="PEksmdlY59P0YD768jUj-158">
          <mxGeometry x="30" width="180" height="30" as="geometry" />
        </mxCell>
        <mxCell id="PEksmdlY59P0YD768jUj-155" style="shape=partialRectangle;collapsible=0;dropTarget=0;pointerEvents=0;fillColor=none;top=0;left=0;bottom=0;right=0;points=[[0,0.5],[1,0.5]];portConstraint=eastwest;" vertex="1" parent="PEksmdlY59P0YD768jUj-88">
          <mxGeometry y="2230" width="210" height="30" as="geometry" />
        </mxCell>
        <mxCell id="PEksmdlY59P0YD768jUj-156" style="shape=partialRectangle;connectable=0;fillColor=none;top=0;left=0;bottom=0;right=0;editable=1;overflow=hidden;" vertex="1" parent="PEksmdlY59P0YD768jUj-155">
          <mxGeometry width="30" height="30" as="geometry" />
        </mxCell>
        <mxCell id="PEksmdlY59P0YD768jUj-157" value="INV_SUB_PARENT_ID" style="shape=partialRectangle;connectable=0;fillColor=none;top=0;left=0;bottom=0;right=0;align=left;spacingLeft=6;overflow=hidden;" vertex="1" parent="PEksmdlY59P0YD768jUj-155">
          <mxGeometry x="30" width="180" height="30" as="geometry" />
        </mxCell>
        <mxCell id="PEksmdlY59P0YD768jUj-152" style="shape=partialRectangle;collapsible=0;dropTarget=0;pointerEvents=0;fillColor=none;top=0;left=0;bottom=0;right=0;points=[[0,0.5],[1,0.5]];portConstraint=eastwest;" vertex="1" parent="PEksmdlY59P0YD768jUj-88">
          <mxGeometry y="2260" width="210" height="30" as="geometry" />
        </mxCell>
        <mxCell id="PEksmdlY59P0YD768jUj-153" style="shape=partialRectangle;connectable=0;fillColor=none;top=0;left=0;bottom=0;right=0;editable=1;overflow=hidden;" vertex="1" parent="PEksmdlY59P0YD768jUj-152">
          <mxGeometry width="30" height="30" as="geometry" />
        </mxCell>
        <mxCell id="PEksmdlY59P0YD768jUj-154" value="INV_SUB_PARENT_NAME" style="shape=partialRectangle;connectable=0;fillColor=none;top=0;left=0;bottom=0;right=0;align=left;spacingLeft=6;overflow=hidden;" vertex="1" parent="PEksmdlY59P0YD768jUj-152">
          <mxGeometry x="30" width="180" height="30" as="geometry" />
        </mxCell>
        <mxCell id="PEksmdlY59P0YD768jUj-170" style="shape=partialRectangle;collapsible=0;dropTarget=0;pointerEvents=0;fillColor=none;top=0;left=0;bottom=0;right=0;points=[[0,0.5],[1,0.5]];portConstraint=eastwest;" vertex="1" parent="PEksmdlY59P0YD768jUj-88">
          <mxGeometry y="2290" width="210" height="30" as="geometry" />
        </mxCell>
        <mxCell id="PEksmdlY59P0YD768jUj-171" style="shape=partialRectangle;connectable=0;fillColor=none;top=0;left=0;bottom=0;right=0;editable=1;overflow=hidden;" vertex="1" parent="PEksmdlY59P0YD768jUj-170">
          <mxGeometry width="30" height="30" as="geometry" />
        </mxCell>
        <mxCell id="PEksmdlY59P0YD768jUj-172" value="INV_OPE_NAME" style="shape=partialRectangle;connectable=0;fillColor=none;top=0;left=0;bottom=0;right=0;align=left;spacingLeft=6;overflow=hidden;" vertex="1" parent="PEksmdlY59P0YD768jUj-170">
          <mxGeometry x="30" width="180" height="30" as="geometry" />
        </mxCell>
        <mxCell id="PEksmdlY59P0YD768jUj-696" style="edgeStyle=orthogonalEdgeStyle;rounded=0;orthogonalLoop=1;jettySize=auto;html=1;exitX=1;exitY=0.5;exitDx=0;exitDy=0;entryX=0;entryY=0.5;entryDx=0;entryDy=0;" edge="1" parent="1" source="PEksmdlY59P0YD768jUj-534" target="PEksmdlY59P0YD768jUj-92">
          <mxGeometry relative="1" as="geometry" />
        </mxCell>
        <mxCell id="PEksmdlY59P0YD768jUj-697" style="edgeStyle=orthogonalEdgeStyle;rounded=0;orthogonalLoop=1;jettySize=auto;html=1;exitX=1;exitY=0.5;exitDx=0;exitDy=0;entryX=0;entryY=0.5;entryDx=0;entryDy=0;" edge="1" parent="1" source="PEksmdlY59P0YD768jUj-561" target="PEksmdlY59P0YD768jUj-131">
          <mxGeometry relative="1" as="geometry" />
        </mxCell>
        <mxCell id="PEksmdlY59P0YD768jUj-721" value="CS_CUST_INFO   CUST_INFO" style="shape=table;startSize=30;container=1;collapsible=1;childLayout=tableLayout;fixedRows=1;rowLines=0;fontStyle=1;align=center;resizeLast=1;" vertex="1" parent="1">
          <mxGeometry x="-570" y="2200" width="200" height="140" as="geometry" />
        </mxCell>
        <mxCell id="PEksmdlY59P0YD768jUj-722" value="" style="shape=partialRectangle;collapsible=0;dropTarget=0;pointerEvents=0;fillColor=none;top=0;left=0;bottom=1;right=0;points=[[0,0.5],[1,0.5]];portConstraint=eastwest;" vertex="1" parent="PEksmdlY59P0YD768jUj-721">
          <mxGeometry y="30" width="200" height="30" as="geometry" />
        </mxCell>
        <mxCell id="PEksmdlY59P0YD768jUj-723" value="PK" style="shape=partialRectangle;connectable=0;fillColor=none;top=0;left=0;bottom=0;right=0;fontStyle=1;overflow=hidden;" vertex="1" parent="PEksmdlY59P0YD768jUj-722">
          <mxGeometry width="30" height="30" as="geometry" />
        </mxCell>
        <mxCell id="PEksmdlY59P0YD768jUj-724" value="CUST_ID" style="shape=partialRectangle;connectable=0;fillColor=none;top=0;left=0;bottom=0;right=0;align=left;spacingLeft=6;fontStyle=5;overflow=hidden;" vertex="1" parent="PEksmdlY59P0YD768jUj-722">
          <mxGeometry x="30" width="170" height="30" as="geometry" />
        </mxCell>
        <mxCell id="PEksmdlY59P0YD768jUj-725" value="" style="shape=partialRectangle;collapsible=0;dropTarget=0;pointerEvents=0;fillColor=none;top=0;left=0;bottom=0;right=0;points=[[0,0.5],[1,0.5]];portConstraint=eastwest;" vertex="1" parent="PEksmdlY59P0YD768jUj-721">
          <mxGeometry y="60" width="200" height="30" as="geometry" />
        </mxCell>
        <mxCell id="PEksmdlY59P0YD768jUj-726" value="" style="shape=partialRectangle;connectable=0;fillColor=none;top=0;left=0;bottom=0;right=0;editable=1;overflow=hidden;" vertex="1" parent="PEksmdlY59P0YD768jUj-725">
          <mxGeometry width="30" height="30" as="geometry" />
        </mxCell>
        <mxCell id="PEksmdlY59P0YD768jUj-727" value="CUST_NO" style="shape=partialRectangle;connectable=0;fillColor=none;top=0;left=0;bottom=0;right=0;align=left;spacingLeft=6;overflow=hidden;" vertex="1" parent="PEksmdlY59P0YD768jUj-725">
          <mxGeometry x="30" width="170" height="30" as="geometry" />
        </mxCell>
        <mxCell id="PEksmdlY59P0YD768jUj-728" value="" style="shape=partialRectangle;collapsible=0;dropTarget=0;pointerEvents=0;fillColor=none;top=0;left=0;bottom=0;right=0;points=[[0,0.5],[1,0.5]];portConstraint=eastwest;" vertex="1" parent="PEksmdlY59P0YD768jUj-721">
          <mxGeometry y="90" width="200" height="30" as="geometry" />
        </mxCell>
        <mxCell id="PEksmdlY59P0YD768jUj-729" value="" style="shape=partialRectangle;connectable=0;fillColor=none;top=0;left=0;bottom=0;right=0;editable=1;overflow=hidden;" vertex="1" parent="PEksmdlY59P0YD768jUj-728">
          <mxGeometry width="30" height="30" as="geometry" />
        </mxCell>
        <mxCell id="PEksmdlY59P0YD768jUj-730" value="CUST_NAME" style="shape=partialRectangle;connectable=0;fillColor=none;top=0;left=0;bottom=0;right=0;align=left;spacingLeft=6;overflow=hidden;" vertex="1" parent="PEksmdlY59P0YD768jUj-728">
          <mxGeometry x="30" width="170" height="30" as="geometry" />
        </mxCell>
        <mxCell id="PEksmdlY59P0YD768jUj-731" value="" style="shape=partialRectangle;collapsible=0;dropTarget=0;pointerEvents=0;fillColor=none;top=0;left=0;bottom=0;right=0;points=[[0,0.5],[1,0.5]];portConstraint=eastwest;" vertex="1" parent="PEksmdlY59P0YD768jUj-721">
          <mxGeometry y="120" width="200" height="20" as="geometry" />
        </mxCell>
        <mxCell id="PEksmdlY59P0YD768jUj-732" value="" style="shape=partialRectangle;connectable=0;fillColor=none;top=0;left=0;bottom=0;right=0;editable=1;overflow=hidden;" vertex="1" parent="PEksmdlY59P0YD768jUj-731">
          <mxGeometry width="30" height="20" as="geometry" />
        </mxCell>
        <mxCell id="PEksmdlY59P0YD768jUj-733" value="" style="shape=partialRectangle;connectable=0;fillColor=none;top=0;left=0;bottom=0;right=0;align=left;spacingLeft=6;overflow=hidden;" vertex="1" parent="PEksmdlY59P0YD768jUj-731">
          <mxGeometry x="30" width="170" height="20" as="geometry" />
        </mxCell>
        <mxCell id="PEksmdlY59P0YD768jUj-708" value="CS_BUSI_CUST   CUST" style="shape=table;startSize=30;container=1;collapsible=1;childLayout=tableLayout;fixedRows=1;rowLines=0;fontStyle=1;align=center;resizeLast=1;" vertex="1" parent="1">
          <mxGeometry x="-570" y="2360" width="205" height="140" as="geometry" />
        </mxCell>
        <mxCell id="PEksmdlY59P0YD768jUj-709" value="" style="shape=partialRectangle;collapsible=0;dropTarget=0;pointerEvents=0;fillColor=none;top=0;left=0;bottom=1;right=0;points=[[0,0.5],[1,0.5]];portConstraint=eastwest;" vertex="1" parent="PEksmdlY59P0YD768jUj-708">
          <mxGeometry y="30" width="205" height="30" as="geometry" />
        </mxCell>
        <mxCell id="PEksmdlY59P0YD768jUj-710" value="PK" style="shape=partialRectangle;connectable=0;fillColor=none;top=0;left=0;bottom=0;right=0;fontStyle=1;overflow=hidden;" vertex="1" parent="PEksmdlY59P0YD768jUj-709">
          <mxGeometry width="30" height="30" as="geometry" />
        </mxCell>
        <mxCell id="PEksmdlY59P0YD768jUj-711" value="BUSI_CUST_ID" style="shape=partialRectangle;connectable=0;fillColor=none;top=0;left=0;bottom=0;right=0;align=left;spacingLeft=6;fontStyle=5;overflow=hidden;" vertex="1" parent="PEksmdlY59P0YD768jUj-709">
          <mxGeometry x="30" width="175" height="30" as="geometry" />
        </mxCell>
        <mxCell id="PEksmdlY59P0YD768jUj-712" value="" style="shape=partialRectangle;collapsible=0;dropTarget=0;pointerEvents=0;fillColor=none;top=0;left=0;bottom=0;right=0;points=[[0,0.5],[1,0.5]];portConstraint=eastwest;" vertex="1" parent="PEksmdlY59P0YD768jUj-708">
          <mxGeometry y="60" width="205" height="30" as="geometry" />
        </mxCell>
        <mxCell id="PEksmdlY59P0YD768jUj-713" value="" style="shape=partialRectangle;connectable=0;fillColor=none;top=0;left=0;bottom=0;right=0;editable=1;overflow=hidden;" vertex="1" parent="PEksmdlY59P0YD768jUj-712">
          <mxGeometry width="30" height="30" as="geometry" />
        </mxCell>
        <mxCell id="PEksmdlY59P0YD768jUj-714" value="BUSI_CUST_NO" style="shape=partialRectangle;connectable=0;fillColor=none;top=0;left=0;bottom=0;right=0;align=left;spacingLeft=6;overflow=hidden;" vertex="1" parent="PEksmdlY59P0YD768jUj-712">
          <mxGeometry x="30" width="175" height="30" as="geometry" />
        </mxCell>
        <mxCell id="PEksmdlY59P0YD768jUj-715" value="" style="shape=partialRectangle;collapsible=0;dropTarget=0;pointerEvents=0;fillColor=none;top=0;left=0;bottom=0;right=0;points=[[0,0.5],[1,0.5]];portConstraint=eastwest;" vertex="1" parent="PEksmdlY59P0YD768jUj-708">
          <mxGeometry y="90" width="205" height="30" as="geometry" />
        </mxCell>
        <mxCell id="PEksmdlY59P0YD768jUj-716" value="" style="shape=partialRectangle;connectable=0;fillColor=none;top=0;left=0;bottom=0;right=0;editable=1;overflow=hidden;" vertex="1" parent="PEksmdlY59P0YD768jUj-715">
          <mxGeometry width="30" height="30" as="geometry" />
        </mxCell>
        <mxCell id="PEksmdlY59P0YD768jUj-717" value="BUSI_CUST_NAME" style="shape=partialRectangle;connectable=0;fillColor=none;top=0;left=0;bottom=0;right=0;align=left;spacingLeft=6;overflow=hidden;" vertex="1" parent="PEksmdlY59P0YD768jUj-715">
          <mxGeometry x="30" width="175" height="30" as="geometry" />
        </mxCell>
        <mxCell id="PEksmdlY59P0YD768jUj-718" value="" style="shape=partialRectangle;collapsible=0;dropTarget=0;pointerEvents=0;fillColor=none;top=0;left=0;bottom=0;right=0;points=[[0,0.5],[1,0.5]];portConstraint=eastwest;" vertex="1" parent="PEksmdlY59P0YD768jUj-708">
          <mxGeometry y="120" width="205" height="20" as="geometry" />
        </mxCell>
        <mxCell id="PEksmdlY59P0YD768jUj-719" value="" style="shape=partialRectangle;connectable=0;fillColor=none;top=0;left=0;bottom=0;right=0;editable=1;overflow=hidden;" vertex="1" parent="PEksmdlY59P0YD768jUj-718">
          <mxGeometry width="30" height="20" as="geometry" />
        </mxCell>
        <mxCell id="PEksmdlY59P0YD768jUj-720" value="" style="shape=partialRectangle;connectable=0;fillColor=none;top=0;left=0;bottom=0;right=0;align=left;spacingLeft=6;overflow=hidden;" vertex="1" parent="PEksmdlY59P0YD768jUj-718">
          <mxGeometry x="30" width="175" height="20" as="geometry" />
        </mxCell>
        <mxCell id="PEksmdlY59P0YD768jUj-738" style="edgeStyle=orthogonalEdgeStyle;rounded=0;orthogonalLoop=1;jettySize=auto;html=1;exitX=1;exitY=0.5;exitDx=0;exitDy=0;entryX=0;entryY=0.5;entryDx=0;entryDy=0;" edge="1" parent="1" source="PEksmdlY59P0YD768jUj-672" target="PEksmdlY59P0YD768jUj-741">
          <mxGeometry relative="1" as="geometry">
            <mxPoint x="-130" y="265" as="targetPoint" />
          </mxGeometry>
        </mxCell>
        <mxCell id="PEksmdlY59P0YD768jUj-739" style="edgeStyle=orthogonalEdgeStyle;rounded=0;orthogonalLoop=1;jettySize=auto;html=1;exitX=1;exitY=0.5;exitDx=0;exitDy=0;entryX=0;entryY=0.5;entryDx=0;entryDy=0;" edge="1" parent="1" source="PEksmdlY59P0YD768jUj-558" target="PEksmdlY59P0YD768jUj-122">
          <mxGeometry relative="1" as="geometry" />
        </mxCell>
        <mxCell id="PEksmdlY59P0YD768jUj-740" style="edgeStyle=orthogonalEdgeStyle;rounded=0;orthogonalLoop=1;jettySize=auto;html=1;exitX=1;exitY=0.5;exitDx=0;exitDy=0;entryX=0;entryY=0.5;entryDx=0;entryDy=0;" edge="1" parent="1" source="PEksmdlY59P0YD768jUj-570" target="PEksmdlY59P0YD768jUj-113">
          <mxGeometry relative="1" as="geometry" />
        </mxCell>
        <mxCell id="PEksmdlY59P0YD768jUj-744" style="edgeStyle=orthogonalEdgeStyle;rounded=0;orthogonalLoop=1;jettySize=auto;html=1;exitX=1;exitY=0.5;exitDx=0;exitDy=0;" edge="1" parent="1" source="PEksmdlY59P0YD768jUj-540" target="PEksmdlY59P0YD768jUj-227">
          <mxGeometry relative="1" as="geometry" />
        </mxCell>
        <mxCell id="PEksmdlY59P0YD768jUj-745" style="edgeStyle=orthogonalEdgeStyle;rounded=0;orthogonalLoop=1;jettySize=auto;html=1;exitX=1;exitY=0.5;exitDx=0;exitDy=0;entryX=0;entryY=0.5;entryDx=0;entryDy=0;" edge="1" parent="1" source="PEksmdlY59P0YD768jUj-543" target="PEksmdlY59P0YD768jUj-224">
          <mxGeometry relative="1" as="geometry">
            <mxPoint x="-130" y="325" as="targetPoint" />
          </mxGeometry>
        </mxCell>
        <mxCell id="PEksmdlY59P0YD768jUj-747" style="edgeStyle=orthogonalEdgeStyle;rounded=0;orthogonalLoop=1;jettySize=auto;html=1;exitX=1;exitY=0.5;exitDx=0;exitDy=0;entryX=0;entryY=0.5;entryDx=0;entryDy=0;" edge="1" parent="1" source="PEksmdlY59P0YD768jUj-528" target="PEksmdlY59P0YD768jUj-221">
          <mxGeometry relative="1" as="geometry" />
        </mxCell>
        <mxCell id="PEksmdlY59P0YD768jUj-748" style="edgeStyle=orthogonalEdgeStyle;rounded=0;orthogonalLoop=1;jettySize=auto;html=1;exitX=1;exitY=0.5;exitDx=0;exitDy=0;entryX=0;entryY=0.5;entryDx=0;entryDy=0;" edge="1" parent="1" source="PEksmdlY59P0YD768jUj-525" target="PEksmdlY59P0YD768jUj-218">
          <mxGeometry relative="1" as="geometry" />
        </mxCell>
        <mxCell id="PEksmdlY59P0YD768jUj-749" style="edgeStyle=orthogonalEdgeStyle;rounded=0;orthogonalLoop=1;jettySize=auto;html=1;exitX=1;exitY=0.5;exitDx=0;exitDy=0;" edge="1" parent="1" source="PEksmdlY59P0YD768jUj-591" target="PEksmdlY59P0YD768jUj-215">
          <mxGeometry relative="1" as="geometry" />
        </mxCell>
        <mxCell id="PEksmdlY59P0YD768jUj-750" style="edgeStyle=orthogonalEdgeStyle;rounded=0;orthogonalLoop=1;jettySize=auto;html=1;exitX=1;exitY=0.5;exitDx=0;exitDy=0;entryX=0;entryY=0.5;entryDx=0;entryDy=0;" edge="1" parent="1" source="PEksmdlY59P0YD768jUj-654" target="PEksmdlY59P0YD768jUj-200">
          <mxGeometry relative="1" as="geometry" />
        </mxCell>
        <mxCell id="PEksmdlY59P0YD768jUj-1663" style="edgeStyle=orthogonalEdgeStyle;rounded=0;orthogonalLoop=1;jettySize=auto;html=1;exitX=1;exitY=0.5;exitDx=0;exitDy=0;" edge="1" parent="1" source="PEksmdlY59P0YD768jUj-615" target="PEksmdlY59P0YD768jUj-149">
          <mxGeometry relative="1" as="geometry" />
        </mxCell>
        <mxCell id="PEksmdlY59P0YD768jUj-1664" style="edgeStyle=orthogonalEdgeStyle;rounded=0;orthogonalLoop=1;jettySize=auto;html=1;exitX=1;exitY=0.5;exitDx=0;exitDy=0;entryX=0;entryY=0.5;entryDx=0;entryDy=0;" edge="1" parent="1" source="PEksmdlY59P0YD768jUj-594" target="PEksmdlY59P0YD768jUj-290">
          <mxGeometry relative="1" as="geometry" />
        </mxCell>
      </root>
    </mxGraphModel>
  </diagram>
</mxfile>
